<svg preserveAspectRatio="none" width="100%" height="100%" overflow="visible" style="display: block;" viewBox="0 0 233.981 185.96" fill="none" xmlns="http://www.w3.org/2000/svg">
<g id="Group">
<path id="Vector" d="M13.5015 87.6623H27.041V84.3637C27.041 79.9656 27.8789 75.7674 29.4023 71.9291C30.9829 67.9508 33.2871 64.3523 36.1626 61.3536C39.019 58.3549 42.4468 55.9159 46.2363 54.2567C49.8926 52.6573 53.8916 51.7777 58.0811 51.7777H111.954V51.4979V31.2466C111.078 30.9067 110.24 30.4869 109.44 30.0071C108.316 29.3074 107.288 28.4678 106.374 27.5082C104.965 26.0288 103.822 24.2496 103.042 22.2704C102.299 20.3712 101.88 18.2721 101.88 16.1131C101.88 13.934 102.299 11.8549 103.042 9.95572C103.822 7.97657 104.965 6.19733 106.374 4.71797C107.783 3.23861 109.478 2.03912 111.363 1.21948C113.172 0.419819 115.172 0 117.229 0C119.285 0 121.285 0.439811 123.094 1.21948C124.979 2.03912 126.674 3.23861 128.083 4.71797C129.492 6.19733 130.635 7.97657 131.416 9.95572C132.158 11.8549 132.577 13.954 132.577 16.1131C132.577 18.2921 132.158 20.3712 131.416 22.2704C130.635 24.2496 129.492 26.0288 128.083 27.5082L128.007 27.5881C127.112 28.5077 126.103 29.3274 125.017 30.0071C124.217 30.5069 123.379 30.9267 122.503 31.2466V51.4979V51.7777H176.376C180.565 51.7777 184.564 52.6573 188.221 54.2567C192.029 55.9159 195.438 58.3349 198.294 61.3536C201.151 64.3523 203.474 67.9508 205.055 71.9291C206.578 75.7674 207.416 79.9656 207.416 84.3637V87.6623H220.48C222.289 87.6623 224.041 88.0421 225.64 88.7418C227.297 89.4615 228.782 90.5211 230.02 91.8205L230.096 91.9005C231.315 93.1999 232.286 94.7193 232.953 96.4185C233.619 98.0978 233.981 99.917 233.981 101.836V139.66C233.981 141.559 233.619 143.398 232.953 145.078C232.267 146.797 231.258 148.376 230.02 149.676C227.583 152.235 224.193 153.834 220.48 153.834H207.397C207.34 158.052 206.502 162.11 205.036 165.809C203.455 169.807 201.151 173.385 198.275 176.384C195.419 179.383 191.991 181.822 188.202 183.481C184.545 185.08 180.546 185.96 176.357 185.96H58.0811C53.8916 185.96 49.8926 185.08 46.2363 183.481C42.4277 181.822 39.019 179.403 36.1626 176.384C33.3062 173.385 30.9829 169.787 29.4023 165.809C27.936 162.11 27.0981 158.052 27.041 153.834H13.5015C11.6924 153.834 9.94043 153.454 8.34082 152.754C6.68408 152.035 5.19873 150.975 3.96094 149.676L3.88477 149.596C2.66602 148.296 1.69482 146.777 1.02832 145.078C0.361816 143.398 0 141.559 0 139.66V101.836C0 99.937 0.361816 98.0978 1.02832 96.4185C1.71387 94.6793 2.72314 93.12 3.96094 91.8205C5.19873 90.5211 6.68408 89.4615 8.34082 88.7418C9.94043 88.0421 11.6733 87.6623 13.5015 87.6623ZM89.502 148.496C89.2354 148.276 89.0068 148.036 88.7974 147.756C88.1689 146.957 87.8452 146.037 87.8262 145.098C87.8071 144.158 88.0928 143.218 88.6831 142.399C88.8926 142.119 89.1211 141.859 89.4067 141.619C90.397 140.759 91.7109 140.3 93.0059 140.28C94.3008 140.26 95.5957 140.66 96.624 141.479C100.166 144.338 103.67 146.417 107.136 147.796C110.563 149.156 113.953 149.796 117.305 149.756C120.675 149.716 124.084 148.976 127.569 147.597C131.092 146.197 134.634 144.098 138.233 141.399C139.299 140.6 140.613 140.24 141.908 140.3C143.203 140.36 144.498 140.839 145.469 141.739C145.717 141.979 145.945 142.239 146.155 142.539C146.726 143.378 146.993 144.338 146.936 145.278C146.878 146.217 146.517 147.137 145.869 147.916C145.641 148.176 145.374 148.436 145.069 148.656C140.556 152.075 136.024 154.673 131.435 156.453C126.826 158.232 122.161 159.172 117.438 159.232C112.696 159.291 108.012 158.452 103.346 156.673C98.7188 154.913 94.1104 152.215 89.5781 148.556L89.502 148.496ZM77.6382 87.3624C78.7808 87.3624 79.9233 87.4824 81.0088 87.7223C82.1133 87.9622 83.1987 88.302 84.2461 88.7618C85.3125 89.2216 86.3218 89.7814 87.2549 90.4411C88.1689 91.0808 89.0259 91.8005 89.7876 92.6002L89.9019 92.7001C90.7017 93.5398 91.4253 94.4594 92.0537 95.4589L92.0918 95.5189C92.7012 96.4785 93.2344 97.518 93.6533 98.6176C94.0913 99.7171 94.415 100.857 94.6436 102.016C94.853 103.176 94.9863 104.355 94.9863 105.555C94.9863 106.754 94.8721 107.954 94.6436 109.093C94.415 110.253 94.0913 111.392 93.6533 112.512C93.2153 113.631 92.6821 114.691 92.0537 115.67C91.4063 116.69 90.6826 117.609 89.9019 118.429C88.3213 120.088 86.398 121.448 84.2461 122.367C83.1987 122.827 82.1133 123.167 80.9898 123.407C79.8853 123.627 78.7617 123.747 77.6191 123.747C76.4766 123.747 75.334 123.627 74.2485 123.407C73.144 123.167 72.0586 122.827 70.9922 122.367C69.9258 121.908 68.9165 121.348 67.9834 120.688C67.0122 120.008 66.1362 119.249 65.3555 118.429C64.5557 117.589 63.832 116.67 63.2036 115.67L63.1655 115.61C62.5562 114.651 62.023 113.611 61.604 112.512C61.166 111.412 60.8423 110.273 60.6138 109.113C60.4043 107.954 60.29 106.774 60.29 105.575C60.29 104.375 60.4043 103.176 60.6138 102.036C60.8423 100.877 61.166 99.7371 61.604 98.6376C62.042 97.5181 62.5752 96.4585 63.2036 95.4789C63.8511 94.4594 64.5747 93.5398 65.3555 92.7201C66.1553 91.8805 67.0313 91.1208 67.9834 90.4611L68.0405 90.4211C68.9546 89.7814 69.9448 89.2216 70.9922 88.7818C72.0396 88.322 73.125 87.9822 74.2295 87.7423C75.353 87.4824 76.4956 87.3624 77.6382 87.3624ZM81.3706 96.1187C80.7993 95.8788 80.1899 95.6788 79.5615 95.5389C78.9522 95.419 78.3047 95.339 77.6382 95.339C76.9717 95.339 76.3242 95.399 75.7148 95.5389C75.0674 95.6788 74.458 95.8588 73.9058 96.1187C73.3154 96.3785 72.7632 96.6784 72.23 97.0583C71.7158 97.4181 71.2207 97.8579 70.7446 98.3577C70.2686 98.8575 69.8687 99.3773 69.5068 99.917C69.145 100.477 68.8594 101.057 68.6118 101.656C68.3833 102.256 68.1929 102.896 68.0596 103.555C67.9453 104.195 67.8691 104.875 67.8691 105.575C67.8691 106.274 67.9263 106.954 68.0596 107.594C68.1929 108.273 68.3643 108.913 68.6118 109.493C68.8594 110.113 69.145 110.692 69.5068 111.232C69.8496 111.772 70.2686 112.292 70.7446 112.791C71.2207 113.291 71.7158 113.711 72.23 114.091C72.7441 114.451 73.3154 114.771 73.9058 115.031L73.9629 115.071C74.5151 115.31 75.0864 115.49 75.7148 115.61C76.3242 115.73 76.9717 115.81 77.6382 115.81C78.3047 115.81 78.9522 115.75 79.5615 115.61C80.209 115.47 80.7993 115.29 81.3706 115.051C81.9609 114.791 82.5132 114.471 83.0464 114.111C83.5606 113.751 84.0557 113.311 84.5317 112.811C85.0078 112.312 85.4077 111.792 85.7695 111.252C86.1314 110.692 86.417 110.113 86.6646 109.513C86.8931 108.913 87.0835 108.273 87.2168 107.614C87.3311 106.974 87.4072 106.294 87.4072 105.595C87.4072 104.895 87.3501 104.215 87.2168 103.575C87.0835 102.896 86.9121 102.256 86.6646 101.676C86.417 101.057 86.1314 100.477 85.7695 99.917C85.4077 99.3573 85.0078 98.8375 84.5508 98.3577L84.4556 98.2577C84.0176 97.8179 83.5606 97.4181 83.0654 97.0782C82.5322 96.6784 81.9609 96.3585 81.3706 96.1187ZM156.819 87.3624C157.961 87.3624 159.104 87.4824 160.189 87.7223C161.294 87.9622 162.379 88.302 163.427 88.7618C164.493 89.2216 165.502 89.7814 166.436 90.4411C167.331 91.0808 168.168 91.7805 168.93 92.5802C168.968 92.6202 169.025 92.6601 169.063 92.7001C169.863 93.5398 170.587 94.4594 171.215 95.4589L171.253 95.5189C171.863 96.4785 172.396 97.518 172.815 98.6176C173.253 99.7171 173.577 100.857 173.805 102.016C174.015 103.176 174.129 104.355 174.129 105.555C174.129 106.754 174.015 107.954 173.805 109.093C173.577 110.253 173.253 111.392 172.815 112.512C172.377 113.631 171.844 114.691 171.215 115.67C170.568 116.69 169.844 117.609 169.063 118.429C168.264 119.269 167.388 120.028 166.436 120.688L166.378 120.728C165.445 121.368 164.474 121.928 163.427 122.367C162.379 122.827 161.294 123.167 160.17 123.407C159.066 123.627 157.942 123.747 156.8 123.747C155.657 123.747 154.515 123.627 153.429 123.407C152.325 123.167 151.239 122.827 150.173 122.367C149.087 121.888 148.078 121.328 147.164 120.688L147.069 120.608C146.155 119.948 145.298 119.229 144.536 118.429C143.736 117.589 143.013 116.67 142.384 115.67L142.346 115.61C141.737 114.651 141.204 113.611 140.785 112.512C140.347 111.412 140.023 110.273 139.794 109.113C139.585 107.954 139.452 106.774 139.452 105.575C139.452 104.375 139.566 103.176 139.794 102.036C140.023 100.877 140.347 99.7371 140.785 98.6376C141.223 97.5181 141.756 96.4585 142.384 95.4789C143.032 94.4594 143.755 93.5398 144.536 92.7201C145.317 91.9005 146.212 91.1408 147.164 90.4611C148.097 89.8014 149.106 89.2416 150.173 88.7618C151.22 88.302 152.306 87.9622 153.41 87.7223C154.553 87.4824 155.676 87.3624 156.819 87.3624ZM160.57 96.1187C159.999 95.8788 159.39 95.6788 158.761 95.5389C158.152 95.419 157.504 95.339 156.838 95.339C156.171 95.339 155.524 95.399 154.915 95.5389C154.267 95.6788 153.658 95.8588 153.105 96.1187C152.515 96.3785 151.963 96.6784 151.43 97.0583C150.916 97.4181 150.42 97.8579 149.944 98.3577C149.468 98.8575 149.068 99.3773 148.707 99.917C148.345 100.477 148.059 101.057 147.812 101.656C147.583 102.256 147.393 102.896 147.259 103.555C147.145 104.195 147.069 104.875 147.069 105.575C147.069 106.274 147.126 106.954 147.259 107.594C147.393 108.273 147.564 108.913 147.812 109.493C148.059 110.113 148.345 110.692 148.707 111.232C149.049 111.772 149.468 112.292 149.944 112.791C150.42 113.291 150.916 113.711 151.43 114.091C151.944 114.451 152.515 114.771 153.105 115.031L153.163 115.071C153.715 115.31 154.286 115.49 154.915 115.61C155.524 115.73 156.171 115.81 156.838 115.81C157.504 115.81 158.152 115.75 158.761 115.61C159.409 115.47 159.999 115.29 160.57 115.051C161.161 114.791 161.713 114.471 162.246 114.111C162.779 113.731 163.274 113.311 163.731 112.831C164.208 112.332 164.607 111.812 164.969 111.272C165.331 110.712 165.617 110.133 165.864 109.533C166.093 108.933 166.283 108.293 166.417 107.634C166.531 106.994 166.607 106.314 166.607 105.615C166.607 104.915 166.55 104.235 166.417 103.595C166.283 102.916 166.112 102.276 165.864 101.696C165.617 101.077 165.331 100.497 164.969 99.937C164.607 99.3773 164.208 98.8575 163.75 98.3777L163.655 98.2777C163.217 97.8379 162.76 97.4381 162.265 97.0982C161.713 96.6784 161.161 96.3585 160.57 96.1187ZM34.6392 91.6606V153.374C34.6392 156.693 35.2676 159.851 36.4102 162.75C37.6099 165.749 39.3428 168.468 41.5137 170.747C43.6846 173.026 46.2744 174.865 49.1309 176.104C51.873 177.304 54.9009 177.963 58.062 177.963H176.376C179.537 177.963 182.546 177.304 185.307 176.104C188.164 174.845 190.753 173.026 192.924 170.747C195.095 168.468 196.847 165.749 198.028 162.75C199.17 159.871 199.799 156.693 199.799 153.374V84.3637C199.799 81.0451 199.17 77.8665 198.028 74.9877C196.828 71.989 195.095 69.2702 192.924 66.9912C190.753 64.7122 188.164 62.873 185.307 61.6335C182.565 60.434 179.537 59.7743 176.376 59.7743H58.0811C54.9199 59.7743 51.9111 60.434 49.1499 61.6335C46.2935 62.8929 43.7036 64.7122 41.5327 66.9912C39.3618 69.2702 37.6099 71.989 36.4292 74.9877C35.2866 77.8665 34.6582 81.0451 34.6582 84.3637V91.6606H34.6392ZM27.041 95.6389H13.5015C12.7017 95.6389 11.9399 95.7988 11.2544 96.0987C10.5308 96.4185 9.8833 96.8783 9.33106 97.4581L9.25488 97.5181C8.74072 98.0778 8.32178 98.7375 8.03613 99.4572C7.75049 100.177 7.59814 100.977 7.59814 101.816V139.64C7.59814 140.48 7.75049 141.279 8.03613 141.999C8.34082 142.759 8.77881 143.438 9.33106 144.018C10.3975 145.138 11.8638 145.837 13.4824 145.837H27.022V95.6389H27.041ZM220.499 95.6389H207.435V145.837H220.499C221.298 145.837 222.06 145.677 222.746 145.377C223.469 145.058 224.117 144.598 224.669 144.018C225.221 143.438 225.659 142.759 225.964 141.999C226.25 141.279 226.402 140.48 226.402 139.64V101.836C226.402 100.997 226.25 100.197 225.964 99.4772C225.659 98.7175 225.221 98.0378 224.669 97.4581C224.117 96.8783 223.469 96.4185 222.746 96.0987C222.06 95.8188 221.298 95.6389 220.499 95.6389Z" fill="#EFEFEF"/>
</g>
</svg>
