<svg preserveAspectRatio="none" width="100%" height="100%" overflow="visible" style="display: block;" viewBox="0 0 228 228" fill="none" xmlns="http://www.w3.org/2000/svg">
<g id="preparing_for_college_success_web_card 1" filter="url(#filter0_d_45_1670)">
<g clip-path="url(#clip0_45_1670)">
<path id="Vector" d="M224 0.2805H4V219.362H224V0.2805Z" fill="#FF7E3E"/>
<path id="Vector_2" d="M223.857 193.034H4V220H223.857V193.034Z" fill="#BE1734"/>
<g id="Group">
<path id="Vector_3" d="M85.5925 203.12V205.7H88.3095V203.12H89.7835V209.836H88.3095V206.938H85.5925V209.836H84.113V203.12H85.5925Z" fill="#FF7E3E"/>
<path id="Vector_4" d="M92.0935 203.12V209.836H90.614V203.12H92.0935Z" fill="#FF7E3E"/>
<path id="Vector_5" d="M96.9005 209.787C96.5815 209.919 96.257 209.99 95.9325 209.99C95.421 209.99 94.9535 209.902 94.5465 209.721C94.134 209.545 93.7875 209.297 93.507 208.984C93.2265 208.67 93.0065 208.301 92.858 207.878C92.7095 207.454 92.6325 206.998 92.6325 206.509C92.6325 206.019 92.7095 205.541 92.858 205.112C93.0065 204.683 93.2265 204.309 93.507 203.99C93.7875 203.671 94.134 203.417 94.5465 203.236C94.959 203.054 95.421 202.961 95.9325 202.961C96.279 202.961 96.609 203.01 96.9335 203.115C97.258 203.219 97.5495 203.368 97.808 203.572C98.0665 203.775 98.281 204.023 98.4515 204.314C98.622 204.606 98.7265 204.946 98.7595 205.331H97.3515C97.2635 204.957 97.093 204.672 96.8455 204.485C96.5925 204.298 96.29 204.204 95.9325 204.204C95.6025 204.204 95.3165 204.27 95.0855 204.397C94.8545 204.523 94.6675 204.699 94.519 204.914C94.376 205.128 94.2715 205.376 94.2055 205.651C94.1395 205.926 94.1065 206.212 94.1065 206.509C94.1065 206.806 94.1395 207.064 94.2055 207.334C94.2715 207.603 94.376 207.84 94.519 208.054C94.662 208.269 94.849 208.439 95.0855 208.565C95.322 208.692 95.6025 208.758 95.9325 208.758C96.422 208.758 96.8015 208.632 97.0655 208.384C97.3295 208.137 97.489 207.779 97.533 207.306H96.048V206.206H98.8695V209.836H97.929L97.7805 209.072C97.5165 209.413 97.225 209.649 96.906 209.781L96.9005 209.787Z" fill="#FF7E3E"/>
<path id="Vector_6" d="M101.064 203.12V205.7H103.781V203.12H105.261V209.836H103.781V206.938H101.064V209.836H99.59V203.12H101.064Z" fill="#FF7E3E"/>
<path id="Vector_7" d="M109.364 208.181C109.446 208.335 109.551 208.467 109.688 208.56C109.826 208.659 109.98 208.73 110.161 208.774C110.343 208.824 110.53 208.846 110.728 208.846C110.86 208.846 111.003 208.835 111.151 208.813C111.3 208.791 111.443 208.747 111.575 208.686C111.707 208.626 111.817 208.538 111.905 208.428C111.993 208.318 112.036 208.181 112.036 208.01C112.036 207.829 111.976 207.68 111.861 207.57C111.745 207.454 111.591 207.361 111.404 207.29C111.217 207.218 111.003 207.146 110.766 207.091C110.53 207.036 110.288 206.97 110.04 206.904C109.787 206.844 109.545 206.767 109.309 206.673C109.072 206.585 108.858 206.464 108.671 206.321C108.484 206.178 108.33 205.997 108.214 205.782C108.099 205.568 108.038 205.304 108.038 204.996C108.038 204.649 108.11 204.352 108.258 204.099C108.407 203.846 108.599 203.632 108.836 203.467C109.072 203.296 109.342 203.17 109.644 203.093C109.947 203.011 110.244 202.972 110.546 202.972C110.898 202.972 111.234 203.01 111.558 203.087C111.883 203.164 112.169 203.291 112.416 203.467C112.669 203.643 112.867 203.868 113.016 204.138C113.164 204.413 113.236 204.743 113.236 205.128H111.806C111.795 204.93 111.751 204.759 111.679 204.627C111.608 204.495 111.509 204.391 111.393 204.319C111.272 204.242 111.14 204.193 110.986 204.16C110.832 204.127 110.667 204.11 110.486 204.11C110.365 204.11 110.249 204.121 110.128 204.149C110.007 204.176 109.903 204.221 109.804 204.281C109.705 204.342 109.627 204.424 109.561 204.517C109.501 204.611 109.468 204.732 109.468 204.875C109.468 205.007 109.496 205.111 109.545 205.194C109.595 205.276 109.694 205.353 109.842 205.419C109.991 205.491 110.194 205.557 110.453 205.628C110.711 205.7 111.052 205.788 111.476 205.892C111.602 205.92 111.773 205.964 111.998 206.03C112.218 206.096 112.444 206.201 112.664 206.344C112.884 206.487 113.071 206.679 113.236 206.921C113.395 207.163 113.478 207.471 113.478 207.845C113.478 208.153 113.417 208.439 113.302 208.703C113.186 208.967 113.005 209.193 112.768 209.385C112.532 209.578 112.24 209.726 111.894 209.831C111.547 209.935 111.14 209.99 110.684 209.99C110.315 209.99 109.952 209.946 109.606 209.852C109.259 209.759 108.951 209.621 108.682 209.423C108.412 209.225 108.203 208.984 108.049 208.681C107.889 208.379 107.818 208.021 107.824 207.608H109.254C109.254 207.834 109.292 208.027 109.375 208.181H109.364Z" fill="#FF7E3E"/>
<path id="Vector_8" d="M118.175 204.913C118.087 204.77 117.977 204.649 117.845 204.545C117.713 204.44 117.564 204.352 117.399 204.297C117.234 204.237 117.058 204.209 116.877 204.209C116.546 204.209 116.261 204.276 116.03 204.402C115.799 204.529 115.612 204.704 115.463 204.919C115.32 205.133 115.216 205.381 115.15 205.656C115.084 205.931 115.051 206.217 115.051 206.514C115.051 206.811 115.084 207.069 115.15 207.339C115.216 207.608 115.32 207.845 115.463 208.059C115.606 208.274 115.793 208.444 116.03 208.571C116.266 208.697 116.546 208.763 116.877 208.763C117.328 208.763 117.679 208.626 117.932 208.351C118.185 208.076 118.34 207.713 118.4 207.262H119.83C119.792 207.68 119.693 208.059 119.539 208.4C119.379 208.741 119.176 209.027 118.917 209.264C118.659 209.5 118.356 209.682 118.015 209.808C117.669 209.935 117.289 209.995 116.877 209.995C116.365 209.995 115.898 209.907 115.491 209.726C115.078 209.55 114.732 209.302 114.451 208.989C114.171 208.675 113.951 208.307 113.802 207.883C113.654 207.46 113.576 207.003 113.576 206.514C113.576 206.024 113.654 205.546 113.802 205.117C113.951 204.688 114.171 204.314 114.451 203.995C114.732 203.676 115.078 203.423 115.491 203.241C115.903 203.06 116.365 202.966 116.877 202.966C117.245 202.966 117.597 203.021 117.927 203.126C118.257 203.23 118.549 203.39 118.813 203.593C119.071 203.797 119.286 204.05 119.456 204.352C119.627 204.655 119.731 204.996 119.775 205.386H118.345C118.317 205.216 118.263 205.062 118.175 204.919V204.913Z" fill="#FF7E3E"/>
<path id="Vector_9" d="M121.843 203.12V205.7H124.56V203.12H126.04V209.836H124.56V206.938H121.843V209.836H120.369V203.12H121.843Z" fill="#FF7E3E"/>
<path id="Vector_10" d="M126.799 205.112C126.947 204.683 127.167 204.309 127.447 203.99C127.728 203.671 128.074 203.417 128.487 203.236C128.899 203.054 129.361 202.961 129.873 202.961C130.384 202.961 130.857 203.054 131.264 203.236C131.671 203.417 132.018 203.671 132.299 203.99C132.579 204.309 132.799 204.683 132.947 205.112C133.096 205.541 133.173 206.008 133.173 206.509C133.173 207.009 133.096 207.454 132.947 207.878C132.799 208.301 132.579 208.67 132.299 208.984C132.018 209.297 131.671 209.545 131.264 209.721C130.857 209.897 130.39 209.99 129.873 209.99C129.356 209.99 128.894 209.902 128.487 209.721C128.074 209.545 127.728 209.297 127.447 208.984C127.167 208.67 126.947 208.301 126.799 207.878C126.65 207.454 126.573 206.998 126.573 206.509C126.573 206.019 126.65 205.541 126.799 205.112ZM128.146 207.334C128.212 207.603 128.316 207.84 128.459 208.054C128.602 208.269 128.79 208.439 129.026 208.565C129.263 208.692 129.543 208.758 129.873 208.758C130.203 208.758 130.489 208.692 130.72 208.565C130.951 208.439 131.138 208.269 131.286 208.054C131.435 207.84 131.534 207.603 131.6 207.334C131.666 207.07 131.699 206.795 131.699 206.509C131.699 206.223 131.666 205.931 131.6 205.651C131.534 205.37 131.429 205.128 131.286 204.914C131.143 204.699 130.956 204.523 130.72 204.397C130.483 204.27 130.208 204.204 129.873 204.204C129.537 204.204 129.257 204.27 129.026 204.397C128.795 204.523 128.608 204.699 128.459 204.914C128.316 205.128 128.212 205.376 128.146 205.651C128.08 205.926 128.047 206.212 128.047 206.509C128.047 206.806 128.08 207.064 128.146 207.334Z" fill="#FF7E3E"/>
<path id="Vector_11" d="M133.646 205.112C133.795 204.683 134.014 204.309 134.295 203.99C134.575 203.671 134.922 203.417 135.334 203.236C135.747 203.054 136.209 202.961 136.721 202.961C137.232 202.961 137.705 203.054 138.112 203.236C138.519 203.417 138.866 203.671 139.146 203.99C139.427 204.309 139.646 204.683 139.795 205.112C139.943 205.541 140.021 206.008 140.021 206.509C140.021 207.009 139.943 207.454 139.795 207.878C139.646 208.301 139.427 208.67 139.146 208.984C138.866 209.297 138.519 209.545 138.112 209.721C137.705 209.897 137.238 209.99 136.721 209.99C136.204 209.99 135.741 209.902 135.334 209.721C134.927 209.539 134.575 209.297 134.295 208.984C134.014 208.67 133.795 208.301 133.646 207.878C133.498 207.454 133.421 206.998 133.421 206.509C133.421 206.019 133.498 205.541 133.646 205.112ZM134.994 207.334C135.06 207.603 135.164 207.84 135.307 208.054C135.45 208.269 135.637 208.439 135.874 208.565C136.11 208.692 136.391 208.758 136.721 208.758C137.051 208.758 137.337 208.692 137.568 208.565C137.799 208.439 137.986 208.269 138.134 208.054C138.277 207.84 138.382 207.603 138.448 207.334C138.514 207.07 138.547 206.795 138.547 206.509C138.547 206.223 138.514 205.931 138.448 205.651C138.382 205.37 138.277 205.128 138.134 204.914C137.991 204.699 137.804 204.523 137.568 204.397C137.331 204.27 137.051 204.204 136.721 204.204C136.391 204.204 136.105 204.27 135.874 204.397C135.643 204.523 135.456 204.699 135.307 204.914C135.164 205.128 135.06 205.376 134.994 205.651C134.928 205.926 134.895 206.212 134.895 206.509C134.895 206.806 134.928 207.064 134.994 207.334Z" fill="#FF7E3E"/>
<path id="Vector_12" d="M142.034 203.12V208.593H145.306V209.836H140.554V203.12H142.034Z" fill="#FF7E3E"/>
</g>
<g id="Group_2">
<path id="Vector_13" d="M18.399 85.7725C19.1415 87.2025 20.126 88.3575 21.358 89.243C22.5845 90.1285 24.0255 90.7885 25.6865 91.212C27.342 91.641 29.058 91.8555 30.829 91.8555C32.028 91.8555 33.315 91.7565 34.6845 91.553C36.054 91.355 37.341 90.97 38.54 90.398C39.739 89.826 40.74 89.0395 41.5375 88.0385C42.335 87.0375 42.7365 85.767 42.7365 84.227C42.7365 82.5715 42.2085 81.2295 41.1525 80.201C40.0965 79.1725 38.7105 78.3145 36.9945 77.6325C35.2785 76.945 33.337 76.3455 31.1645 75.834C28.992 75.317 26.792 74.7505 24.5645 74.118C22.2765 73.546 20.049 72.8475 17.882 72.017C15.7095 71.192 13.768 70.1195 12.052 68.805C10.336 67.4905 8.95 65.846 7.894 63.877C6.838 61.908 6.31 59.521 6.31 56.7215C6.31 53.581 6.981 50.853 8.323 48.5375C9.665 46.222 11.4195 44.297 13.592 42.7515C15.7645 41.206 18.2175 40.0675 20.962 39.325C23.7065 38.5825 26.4455 38.2085 29.19 38.2085C32.391 38.2085 35.46 38.566 38.4025 39.281C41.345 39.996 43.9575 41.151 46.2455 42.7515C48.528 44.352 50.343 46.3925 51.685 48.8785C53.027 51.3645 53.698 54.3785 53.698 57.9205H40.674C40.5585 56.0945 40.1735 54.5765 39.519 53.3775C38.859 52.1785 37.99 51.2325 36.9065 50.5505C35.823 49.863 34.58 49.379 33.1775 49.093C31.775 48.807 30.246 48.664 28.5905 48.664C27.507 48.664 26.418 48.7795 25.3345 49.005C24.251 49.236 23.261 49.632 22.3755 50.204C21.49 50.776 20.7585 51.491 20.192 52.349C19.62 53.207 19.334 54.2905 19.334 55.605C19.334 56.804 19.5595 57.7775 20.0215 58.52C20.478 59.2625 21.38 59.95 22.722 60.577C24.064 61.204 25.923 61.8365 28.2935 62.4635C30.664 63.0905 33.766 63.8935 37.594 64.8615C38.738 65.0925 40.322 65.505 42.3515 66.1045C44.381 66.704 46.394 67.661 48.396 68.9755C50.3925 70.29 52.125 72.0445 53.5825 74.2445C55.04 76.4445 55.766 79.2605 55.766 82.687C55.766 85.4865 55.2215 88.088 54.138 90.486C53.0545 92.884 51.4375 94.9575 49.298 96.701C47.153 98.4445 44.4965 99.803 41.3285 100.771C38.155 101.745 34.4865 102.228 30.3175 102.228C26.946 102.228 23.6735 101.816 20.5055 100.986C17.3375 100.161 14.5325 98.857 12.107 97.086C9.676 95.315 7.751 93.06 6.321 90.3155C4.891 87.571 4.209 84.315 4.264 80.5475H17.288C17.288 82.6045 17.6565 84.348 18.4045 85.7725H18.399Z" fill="#BE1734"/>
<path id="Vector_14" d="M89.019 100.853V94.6825H88.7605C87.2205 97.251 85.2185 99.11 82.76 100.254C80.3015 101.398 77.788 101.97 75.2195 101.97C71.9635 101.97 69.2905 101.541 67.206 100.683C65.1215 99.825 63.477 98.615 62.278 97.042C61.079 95.469 60.2375 93.5605 59.748 91.3C59.264 89.045 59.022 86.5425 59.022 83.8035V56.551H71.1935V81.576C71.1935 85.2335 71.7655 87.9615 72.9095 89.76C74.0535 91.5585 76.083 92.4605 78.9925 92.4605C82.3035 92.4605 84.707 91.476 86.192 89.5015C87.677 87.5325 88.4195 84.2875 88.4195 79.772V56.5455H100.591V100.853H89.019Z" fill="#BE1734"/>
<path id="Vector_15" d="M127.58 64.515C125.638 64.515 124.01 64.9605 122.695 65.8405C121.381 66.726 120.309 67.87 119.484 69.267C118.653 70.6695 118.07 72.2095 117.729 73.8925C117.388 75.5755 117.212 77.2475 117.212 78.903C117.212 80.5585 117.382 82.1315 117.729 83.787C118.07 85.4425 118.631 86.944 119.401 88.286C120.171 89.628 121.216 90.728 122.53 91.586C123.845 92.444 125.446 92.873 127.332 92.873C130.247 92.873 132.485 92.059 134.058 90.431C135.631 88.803 136.616 86.6195 137.018 83.875H148.76C147.957 89.76 145.674 94.2425 141.901 97.328C138.128 100.414 133.299 101.954 127.42 101.954C124.103 101.954 121.062 101.398 118.295 100.282C115.523 99.165 113.169 97.614 111.222 95.612C109.281 93.6155 107.763 91.2285 106.68 88.4565C105.596 85.6845 105.051 82.643 105.051 79.3265C105.051 76.01 105.552 72.7155 106.553 69.773C107.554 66.8305 109.022 64.2895 110.964 62.1445C112.905 59.9995 115.276 58.333 118.076 57.134C120.875 55.935 124.076 55.3355 127.673 55.3355C130.302 55.3355 132.826 55.6765 135.257 56.364C137.683 57.0515 139.856 58.091 141.77 59.4935C143.684 60.896 145.24 62.634 146.439 64.7185C147.638 66.803 148.325 69.278 148.496 72.1325H136.583C135.78 67.045 132.782 64.504 127.585 64.504L127.58 64.515Z" fill="#BE1734"/>
<path id="Vector_16" d="M177.888 72.2315V82.687H152.093V72.2315H177.888Z" fill="#BE1734"/>
<path id="Vector_17" d="M27.9965 127.077C26.055 127.077 24.427 127.523 23.1125 128.403C21.798 129.288 20.7255 130.432 19.9005 131.829C19.07 133.232 18.487 134.772 18.146 136.455C17.805 138.138 17.629 139.81 17.629 141.465C17.629 143.121 17.7995 144.694 18.146 146.349C18.487 148.005 19.048 149.506 19.818 150.848C20.588 152.19 21.633 153.29 22.9475 154.148C24.262 155.006 25.8625 155.435 27.749 155.435C30.664 155.435 32.9025 154.622 34.4755 152.994C36.0485 151.366 37.033 149.182 37.4345 146.437H49.177C48.374 152.322 46.0915 156.805 42.3185 159.89C38.5455 162.976 33.7165 164.516 27.837 164.516C24.5205 164.516 21.479 163.96 18.707 162.844C15.935 161.727 13.581 160.176 11.634 158.174C9.6925 156.178 8.1745 153.791 7.091 151.019C6.0075 148.247 5.463 145.206 5.463 141.889C5.463 138.573 5.9635 135.278 6.9645 132.335C7.9655 129.393 9.434 126.852 11.3755 124.707C13.317 122.562 15.6875 120.895 18.487 119.696C21.2865 118.497 24.4875 117.898 28.0845 117.898C30.7135 117.898 33.238 118.239 35.669 118.926C38.0945 119.614 40.267 120.653 42.181 122.056C44.095 123.458 45.6515 125.196 46.8505 127.281C48.0495 129.365 48.737 131.84 48.9075 134.695H36.9945C36.1915 129.607 33.194 127.066 27.9965 127.066V127.077Z" fill="#BE1734"/>
<path id="Vector_18" d="M65.622 152.79C67.448 154.561 70.077 155.447 73.509 155.447C75.9675 155.447 78.0795 154.836 79.8505 153.604C81.6215 152.378 82.705 151.074 83.1065 149.705H93.8205C92.1045 155.018 89.4755 158.818 85.9335 161.101C82.3915 163.389 78.107 164.527 73.08 164.527C69.593 164.527 66.4525 163.972 63.653 162.855C60.8535 161.739 58.483 160.155 56.5415 158.098C54.6 156.041 53.0985 153.582 52.0425 150.728C50.9865 147.873 50.4585 144.727 50.4585 141.301C50.4585 137.874 51.003 134.904 52.0865 132.044C53.17 129.19 54.7155 126.72 56.712 124.63C58.714 122.546 61.0955 120.901 63.8675 119.702C66.6395 118.503 69.7085 117.904 73.08 117.904C76.853 117.904 80.1365 118.635 82.936 120.087C85.7355 121.545 88.0345 123.503 89.833 125.956C91.6315 128.414 92.9295 131.214 93.7325 134.354C94.53 137.495 94.816 140.784 94.5905 144.21H62.6245C62.795 148.154 63.796 151.008 65.622 152.779V152.79ZM79.3775 129.481C77.92 127.881 75.7035 127.083 72.7335 127.083C70.792 127.083 69.175 127.413 67.8935 128.068C66.6065 128.722 65.578 129.542 64.808 130.51C64.038 131.483 63.4935 132.512 63.18 133.595C62.8665 134.679 62.6795 135.652 62.6245 136.51H82.4245C81.8525 133.425 80.8405 131.082 79.383 129.481H79.3775Z" fill="#BE1734"/>
<path id="Vector_19" d="M108.599 152.405C109.143 153.346 109.842 154.121 110.7 154.721C111.558 155.32 112.543 155.766 113.659 156.046C114.776 156.332 115.93 156.475 117.129 156.475C117.987 156.475 118.884 156.376 119.83 156.178C120.771 155.98 121.628 155.661 122.398 155.238C123.168 154.809 123.812 154.237 124.329 153.522C124.846 152.807 125.099 151.91 125.099 150.821C125.099 148.995 123.883 147.62 121.458 146.707C119.027 145.794 115.644 144.881 111.299 143.963C109.528 143.561 107.802 143.094 106.113 142.549C104.43 142.005 102.928 141.295 101.614 140.404C100.299 139.519 99.2435 138.408 98.4405 137.06C97.6375 135.718 97.2415 134.074 97.2415 132.132C97.2415 129.278 97.797 126.935 98.9135 125.103C100.03 123.277 101.498 121.831 103.324 120.775C105.15 119.719 107.207 118.976 109.495 118.547C111.778 118.118 114.121 117.904 116.524 117.904C118.928 117.904 121.249 118.135 123.509 118.591C125.764 119.048 127.783 119.818 129.554 120.907C131.325 121.996 132.793 123.437 133.965 125.235C135.136 127.034 135.835 129.305 136.066 132.05H124.494C124.323 129.707 123.438 128.123 121.837 127.292C120.237 126.467 118.35 126.049 116.183 126.049C115.496 126.049 114.753 126.093 113.956 126.176C113.153 126.264 112.427 126.445 111.772 126.731C111.112 127.017 110.557 127.43 110.101 127.974C109.644 128.519 109.413 129.245 109.413 130.158C109.413 131.241 109.814 132.127 110.612 132.814C111.409 133.502 112.454 134.057 113.741 134.486C115.028 134.915 116.497 135.3 118.152 135.641C119.808 135.982 121.497 136.356 123.207 136.758C124.978 137.159 126.705 137.643 128.393 138.215C130.076 138.787 131.578 139.541 132.892 140.487C134.207 141.427 135.263 142.599 136.066 144.001C136.863 145.404 137.265 147.131 137.265 149.188C137.265 152.103 136.676 154.545 135.51 156.514C134.339 158.483 132.81 160.072 130.923 161.271C129.037 162.47 126.881 163.312 124.455 163.801C122.024 164.285 119.555 164.527 117.041 164.527C114.528 164.527 111.954 164.269 109.501 163.757C107.043 163.246 104.859 162.388 102.945 161.189C101.031 159.99 99.458 158.406 98.2315 156.431C97.005 154.462 96.334 151.987 96.2185 149.017H107.791C107.791 150.332 108.06 151.459 108.604 152.4L108.599 152.405Z" fill="#BE1734"/>
<path id="Vector_20" d="M151.191 152.405C151.735 153.346 152.434 154.121 153.292 154.721C154.15 155.32 155.135 155.766 156.251 156.046C157.368 156.332 158.523 156.475 159.722 156.475C160.58 156.475 161.476 156.376 162.422 156.178C163.363 155.98 164.22 155.661 164.99 155.238C165.76 154.814 166.404 154.237 166.921 153.522C167.438 152.807 167.691 151.91 167.691 150.821C167.691 148.995 166.475 147.62 164.05 146.707C161.619 145.794 158.237 144.881 153.897 143.963C152.126 143.561 150.393 143.094 148.71 142.549C147.022 142.005 145.526 141.295 144.211 140.404C142.897 139.519 141.841 138.408 141.043 137.06C140.24 135.718 139.845 134.074 139.845 132.132C139.845 129.278 140.4 126.935 141.516 125.103C142.633 123.277 144.101 121.831 145.927 120.775C147.753 119.719 149.81 118.976 152.098 118.547C154.381 118.118 156.724 117.904 159.127 117.904C161.531 117.904 163.852 118.135 166.112 118.591C168.367 119.048 170.38 119.818 172.157 120.907C173.928 121.996 175.397 123.437 176.568 125.235C177.74 127.034 178.438 129.305 178.669 132.05H167.097C166.927 129.707 166.041 128.123 164.44 127.292C162.84 126.467 160.953 126.049 158.786 126.049C158.099 126.049 157.357 126.093 156.559 126.176C155.756 126.264 155.03 126.445 154.376 126.731C153.716 127.017 153.16 127.43 152.703 127.974C152.247 128.519 152.016 129.245 152.016 130.158C152.016 131.241 152.417 132.127 153.215 132.814C154.012 133.502 155.057 134.057 156.344 134.486C157.631 134.915 159.1 135.3 160.761 135.641C162.416 135.982 164.105 136.356 165.815 136.758C167.586 137.159 169.314 137.643 171.002 138.215C172.685 138.787 174.187 139.541 175.501 140.487C176.816 141.427 177.871 142.599 178.669 144.001C179.466 145.404 179.868 147.131 179.868 149.188C179.868 152.103 179.28 154.545 178.114 156.514C176.942 158.483 175.413 160.072 173.527 161.271C171.64 162.47 169.484 163.312 167.058 163.801C164.627 164.285 162.158 164.527 159.644 164.527C157.131 164.527 154.557 164.269 152.104 163.757C149.645 163.246 147.462 162.388 145.548 161.189C143.634 159.99 142.061 158.406 140.834 156.431C139.602 154.462 138.932 151.987 138.822 149.017H150.394C150.394 150.332 150.663 151.459 151.207 152.4L151.191 152.405Z" fill="#BE1734"/>
</g>
<g id="Group_3">
<path id="Vector_21" d="M62.245 38.1755C63.2625 38.1755 64.0325 38.4395 64.555 38.962C65.0775 39.4845 65.3415 40.216 65.3415 41.162C65.3415 42.108 65.083 42.8395 64.555 43.3675C64.0325 43.8955 63.2625 44.154 62.245 44.143H59.165V48.2735H57.823V38.1755H62.2505H62.245ZM61.794 43.01C62.5585 43.021 63.114 42.8615 63.4715 42.5425C63.8235 42.2235 63.9995 41.7615 63.9995 41.1565C63.9995 40.5515 63.8235 40.095 63.4715 39.776C63.1195 39.4625 62.5585 39.303 61.794 39.303H59.165V43.01H61.794Z" fill="#BE1734"/>
<path id="Vector_22" d="M67.69 40.964V42.504H67.7175C68.009 41.91 68.3665 41.47 68.79 41.1895C69.2135 40.909 69.7525 40.777 70.4015 40.7935V42.064C69.923 42.064 69.5105 42.13 69.1695 42.262C68.8285 42.394 68.559 42.5865 68.35 42.8395C68.141 43.0925 67.9925 43.4005 67.899 43.7635C67.8055 44.1265 67.756 44.5445 67.756 45.0175V48.268H66.5515V40.9585H67.6845L67.69 40.964Z" fill="#BE1734"/>
<path id="Vector_23" d="M76.05 47.806C75.5055 48.2185 74.8125 48.4275 73.9875 48.4275C73.4045 48.4275 72.8985 48.334 72.4695 48.147C72.0405 47.96 71.6775 47.696 71.386 47.355C71.0945 47.014 70.8745 46.6125 70.726 46.1395C70.5775 45.6665 70.495 45.155 70.4785 44.5995C70.4785 44.044 70.561 43.5325 70.7315 43.0705C70.902 42.6085 71.1385 42.207 71.4465 41.866C71.7545 41.525 72.1175 41.261 72.5355 41.074C72.9535 40.887 73.4155 40.7935 73.916 40.7935C74.565 40.7935 75.104 40.9255 75.533 41.195C75.962 41.4645 76.303 41.8055 76.567 42.218C76.8255 42.6305 77.007 43.087 77.106 43.5765C77.205 44.066 77.2435 44.5335 77.227 44.979H71.7545C71.7435 45.298 71.782 45.606 71.87 45.892C71.958 46.178 72.09 46.4365 72.2825 46.6565C72.4695 46.8765 72.7115 47.0525 73.003 47.1845C73.2945 47.3165 73.641 47.3825 74.037 47.3825C74.5485 47.3825 74.961 47.267 75.291 47.0305C75.6155 46.794 75.83 46.4365 75.9345 45.958H77.1225C76.963 46.7775 76.611 47.3935 76.061 47.8115L76.05 47.806ZM75.7585 43.109C75.6485 42.856 75.5055 42.636 75.3185 42.449C75.1315 42.262 74.917 42.119 74.6695 42.009C74.422 41.899 74.1415 41.844 73.8445 41.844C73.5475 41.844 73.2505 41.899 73.003 42.009C72.7555 42.119 72.541 42.2675 72.3595 42.4545C72.178 42.6415 72.0405 42.8615 71.936 43.1145C71.8315 43.362 71.771 43.6315 71.7545 43.912H75.9565C75.94 43.6315 75.874 43.362 75.764 43.1035L75.7585 43.109Z" fill="#BE1734"/>
<path id="Vector_24" d="M79.526 40.964V41.954H79.5535C79.7515 41.547 80.065 41.2555 80.4885 41.0685C80.912 40.887 81.3795 40.7935 81.891 40.7935C82.4575 40.7935 82.947 40.898 83.3705 41.107C83.7885 41.316 84.1405 41.5965 84.4155 41.9485C84.696 42.3005 84.905 42.7075 85.0425 43.1695C85.1855 43.6315 85.257 44.121 85.257 44.638C85.257 45.155 85.191 45.6445 85.0535 46.1065C84.916 46.5685 84.707 46.97 84.432 47.3165C84.1515 47.663 83.805 47.9325 83.387 48.1305C82.969 48.3285 82.4795 48.4275 81.924 48.4275C81.7425 48.4275 81.5445 48.411 81.3245 48.3725C81.1045 48.334 80.8845 48.2735 80.6645 48.191C80.45 48.1085 80.241 47.993 80.0485 47.8445C79.856 47.696 79.691 47.5145 79.559 47.3H79.5315V51.062H78.327V40.964H79.5315H79.526ZM83.8435 43.56C83.7555 43.2355 83.618 42.944 83.431 42.691C83.2495 42.438 83.013 42.2345 82.7215 42.0805C82.4355 41.932 82.0945 41.855 81.7095 41.855C81.3025 41.855 80.9615 41.9375 80.6755 42.097C80.3895 42.2565 80.164 42.4655 79.9825 42.724C79.801 42.9825 79.6745 43.2795 79.592 43.6095C79.5095 43.9395 79.471 44.275 79.471 44.616C79.471 44.9735 79.515 45.32 79.5975 45.6555C79.68 45.991 79.8175 46.2825 79.999 46.541C80.1805 46.7995 80.4225 47.003 80.714 47.157C81.0055 47.311 81.3575 47.388 81.7755 47.388C82.1935 47.388 82.5345 47.3055 82.815 47.146C83.0955 46.9865 83.3155 46.772 83.486 46.508C83.6565 46.244 83.7775 45.9415 83.8545 45.606C83.9315 45.265 83.97 44.9185 83.97 44.561C83.97 44.22 83.926 43.89 83.838 43.5655L83.8435 43.56Z" fill="#BE1734"/>
<path id="Vector_25" d="M92.9625 48.246C92.7535 48.367 92.4675 48.4275 92.099 48.4275C91.7855 48.4275 91.5435 48.3395 91.3565 48.1635C91.175 47.9875 91.0815 47.7015 91.0815 47.3055C90.7515 47.7015 90.3665 47.9875 89.9265 48.1635C89.4865 48.3395 89.0135 48.4275 88.5075 48.4275C88.1775 48.4275 87.864 48.389 87.567 48.312C87.27 48.235 87.0115 48.1195 86.797 47.96C86.5825 47.8005 86.4065 47.5915 86.28 47.333C86.1535 47.0745 86.0875 46.761 86.0875 46.3925C86.0875 45.98 86.159 45.639 86.302 45.375C86.445 45.111 86.6265 44.8965 86.8575 44.7315C87.0885 44.5665 87.3525 44.44 87.6495 44.3575C87.9465 44.275 88.249 44.2035 88.5625 44.143C88.8925 44.077 89.206 44.0275 89.503 43.9945C89.8 43.9615 90.0585 43.912 90.2895 43.8515C90.515 43.791 90.6965 43.703 90.8285 43.582C90.9605 43.4665 91.0265 43.2905 91.0265 43.065C91.0265 42.801 90.977 42.5865 90.878 42.427C90.779 42.2675 90.6525 42.1465 90.4985 42.0585C90.3445 41.976 90.1685 41.9155 89.976 41.888C89.7835 41.8605 89.591 41.844 89.404 41.844C88.8925 41.844 88.469 41.943 88.1335 42.1355C87.7925 42.328 87.611 42.6965 87.5835 43.23H86.379C86.3955 42.779 86.4945 42.394 86.6595 42.086C86.83 41.7725 87.0555 41.525 87.336 41.327C87.6165 41.1345 87.941 40.997 88.304 40.909C88.667 40.8265 89.0575 40.7825 89.47 40.7825C89.8 40.7825 90.13 40.8045 90.4545 40.854C90.779 40.9035 91.076 40.997 91.34 41.1455C91.604 41.294 91.813 41.4975 91.978 41.7615C92.1375 42.0255 92.22 42.3665 92.22 42.79V46.541C92.22 46.8215 92.2365 47.0305 92.2695 47.1625C92.3025 47.2945 92.4125 47.3605 92.5995 47.3605C92.704 47.3605 92.825 47.344 92.968 47.3055V48.2405L92.9625 48.246ZM91.01 44.5005C90.8615 44.6105 90.6635 44.693 90.416 44.748C90.1685 44.7975 89.9155 44.8415 89.646 44.8745C89.3765 44.9075 89.107 44.946 88.832 44.9845C88.557 45.023 88.315 45.0945 88.095 45.188C87.8805 45.2815 87.699 45.4135 87.567 45.5895C87.4295 45.7655 87.3635 46.002 87.3635 46.299C87.3635 46.497 87.402 46.662 87.4845 46.7995C87.567 46.937 87.666 47.047 87.798 47.1295C87.9245 47.212 88.073 47.2725 88.2435 47.311C88.414 47.3495 88.59 47.366 88.7825 47.366C89.1785 47.366 89.5195 47.311 89.8 47.2065C90.0805 47.102 90.3115 46.9645 90.493 46.7995C90.6745 46.6345 90.8065 46.4585 90.889 46.266C90.9715 46.0735 91.0155 45.892 91.0155 45.7215V44.495L91.01 44.5005Z" fill="#BE1734"/>
<path id="Vector_26" d="M94.981 40.964V42.504H95.0085C95.3 41.91 95.6575 41.47 96.081 41.1895C96.5045 40.909 97.0435 40.777 97.6925 40.7935V42.064C97.214 42.064 96.8015 42.13 96.4605 42.262C96.1195 42.394 95.8445 42.5865 95.641 42.8395C95.432 43.0925 95.2835 43.4005 95.19 43.7635C95.0965 44.1265 95.047 44.5445 95.047 45.0175V48.268H93.8425V40.9585H94.9755L94.981 40.964Z" fill="#BE1734"/>
<path id="Vector_27" d="M98.49 39.6495V38.181H99.6945V39.6495H98.49ZM99.6945 40.964V48.2735H98.49V40.964H99.6945Z" fill="#BE1734"/>
<path id="Vector_28" d="M102.505 40.964V42.1245H102.532C103.033 41.239 103.825 40.7935 104.908 40.7935C105.387 40.7935 105.788 40.8595 106.113 40.9915C106.432 41.1235 106.691 41.305 106.889 41.5415C107.087 41.778 107.224 42.0585 107.306 42.383C107.389 42.7075 107.427 43.0705 107.427 43.4665V48.2735H106.223V43.3235C106.223 42.8725 106.091 42.515 105.827 42.251C105.563 41.987 105.2 41.855 104.738 41.855C104.369 41.855 104.05 41.91 103.781 42.0255C103.511 42.141 103.286 42.3005 103.11 42.504C102.928 42.713 102.796 42.955 102.708 43.23C102.62 43.5105 102.576 43.813 102.576 44.143V48.2735H101.372V40.964H102.505Z" fill="#BE1734"/>
<path id="Vector_29" d="M114.539 50.336C113.994 50.93 113.137 51.227 111.965 51.227C111.624 51.227 111.278 51.1885 110.926 51.1115C110.574 51.0345 110.249 50.9135 109.963 50.743C109.677 50.5725 109.435 50.3525 109.248 50.0775C109.061 49.8025 108.956 49.467 108.934 49.071H110.139C110.15 49.2855 110.216 49.4725 110.343 49.621C110.469 49.7695 110.623 49.896 110.81 49.9895C110.991 50.083 111.195 50.1545 111.409 50.193C111.624 50.237 111.833 50.259 112.031 50.259C112.427 50.259 112.763 50.193 113.038 50.0555C113.313 49.918 113.538 49.731 113.714 49.489C113.89 49.247 114.022 48.961 114.105 48.62C114.187 48.279 114.226 47.9105 114.226 47.5035V47.025H114.198C113.989 47.476 113.675 47.8115 113.257 48.0205C112.839 48.235 112.394 48.3395 111.921 48.3395C111.371 48.3395 110.898 48.2405 110.491 48.0425C110.084 47.8445 109.749 47.5805 109.474 47.245C109.199 46.9095 108.995 46.519 108.857 46.0735C108.72 45.628 108.654 45.1495 108.654 44.6545C108.654 44.22 108.709 43.7745 108.824 43.318C108.94 42.8615 109.127 42.449 109.391 42.075C109.655 41.701 110.002 41.3985 110.436 41.1565C110.871 40.9145 111.404 40.7935 112.031 40.7935C112.493 40.7935 112.916 40.8925 113.301 41.096C113.686 41.2995 113.989 41.602 114.209 42.009H114.226V40.964H115.359V47.652C115.359 48.851 115.083 49.7475 114.539 50.3415V50.336ZM113.005 47.047C113.285 46.882 113.505 46.6675 113.676 46.398C113.846 46.1285 113.972 45.826 114.049 45.485C114.126 45.144 114.17 44.8085 114.17 44.4675C114.17 44.1485 114.132 43.8295 114.055 43.5215C113.978 43.208 113.857 42.9275 113.692 42.68C113.527 42.4325 113.313 42.229 113.049 42.0805C112.785 41.932 112.466 41.855 112.086 41.855C111.707 41.855 111.371 41.9265 111.096 42.075C110.821 42.2235 110.601 42.416 110.425 42.6635C110.249 42.911 110.122 43.1915 110.045 43.5105C109.963 43.8295 109.924 44.165 109.924 44.517C109.924 44.847 109.958 45.177 110.024 45.507C110.09 45.837 110.199 46.134 110.364 46.4035C110.529 46.673 110.739 46.8875 111.003 47.0525C111.267 47.2175 111.597 47.3 111.993 47.3C112.389 47.3 112.724 47.2175 113.005 47.0525V47.047Z" fill="#BE1734"/>
<path id="Vector_30" d="M119.995 42.0255V40.964H121.227V39.875C121.227 39.281 121.397 38.83 121.744 38.522C122.09 38.214 122.591 38.06 123.251 38.06C123.367 38.06 123.493 38.071 123.641 38.0875C123.79 38.104 123.917 38.137 124.032 38.17V39.215C123.928 39.1765 123.817 39.149 123.691 39.138C123.57 39.1215 123.454 39.116 123.35 39.116C123.058 39.116 122.833 39.171 122.674 39.2865C122.514 39.402 122.431 39.6165 122.431 39.9355V40.953H123.845V42.0145H122.431V48.2625H121.227V42.0145H119.995V42.0255Z" fill="#BE1734"/>
<path id="Vector_31" d="M124.565 43.12C124.714 42.6525 124.945 42.251 125.242 41.9045C125.544 41.558 125.918 41.2885 126.358 41.0905C126.798 40.8925 127.31 40.7935 127.887 40.7935C128.465 40.7935 128.982 40.8925 129.422 41.0905C129.862 41.2885 130.23 41.558 130.533 41.9045C130.835 42.251 131.061 42.6525 131.209 43.12C131.358 43.5875 131.435 44.088 131.435 44.627C131.435 45.166 131.358 45.6665 131.209 46.1285C131.061 46.5905 130.83 46.992 130.533 47.3385C130.23 47.685 129.862 47.949 129.422 48.147C128.982 48.3395 128.47 48.4385 127.887 48.4385C127.304 48.4385 126.804 48.3395 126.358 48.147C125.913 47.9545 125.544 47.685 125.242 47.3385C124.939 46.992 124.714 46.5905 124.565 46.1285C124.417 45.6665 124.34 45.166 124.34 44.627C124.34 44.088 124.417 43.5875 124.565 43.12ZM125.786 45.8095C125.902 46.156 126.067 46.442 126.276 46.673C126.485 46.904 126.727 47.08 127.002 47.201C127.282 47.322 127.574 47.3825 127.887 47.3825C128.201 47.3825 128.492 47.322 128.773 47.201C129.053 47.08 129.295 46.904 129.499 46.673C129.702 46.442 129.867 46.156 129.988 45.8095C130.104 45.463 130.164 45.0725 130.164 44.627C130.164 44.1815 130.104 43.791 129.988 43.4445C129.873 43.098 129.708 42.812 129.499 42.5755C129.29 42.339 129.048 42.163 128.773 42.0365C128.492 41.9155 128.201 41.855 127.887 41.855C127.574 41.855 127.282 41.9155 127.002 42.0365C126.721 42.1575 126.479 42.339 126.276 42.5755C126.067 42.812 125.907 43.1035 125.786 43.4445C125.671 43.791 125.61 44.1815 125.61 44.627C125.61 45.0725 125.671 45.463 125.786 45.8095Z" fill="#BE1734"/>
<path id="Vector_32" d="M133.756 40.964V42.504H133.784C134.075 41.91 134.433 41.47 134.856 41.1895C135.28 40.909 135.819 40.777 136.468 40.7935V42.064C135.989 42.064 135.577 42.13 135.236 42.262C134.895 42.394 134.625 42.5865 134.416 42.8395C134.207 43.0925 134.059 43.4005 133.965 43.7635C133.872 44.1265 133.822 44.5445 133.822 45.0175V48.268H132.618V40.9585H133.751L133.756 40.964Z" fill="#BE1734"/>
<path id="Vector_33" d="M147.236 39.6055C146.725 39.248 146.114 39.0665 145.405 39.0665C144.8 39.0665 144.283 39.182 143.854 39.4075C143.425 39.633 143.073 39.9355 142.792 40.3205C142.512 40.7 142.308 41.14 142.176 41.6295C142.044 42.119 141.978 42.6305 141.978 43.1585C141.978 43.736 142.044 44.2805 142.176 44.792C142.308 45.3035 142.512 45.7545 142.792 46.134C143.073 46.5135 143.425 46.8215 143.859 47.047C144.294 47.2725 144.811 47.388 145.416 47.388C145.856 47.388 146.252 47.3165 146.598 47.168C146.945 47.0195 147.237 46.8215 147.49 46.5575C147.737 46.299 147.935 45.991 148.078 45.6335C148.221 45.276 148.304 44.891 148.331 44.473H149.673C149.541 45.7435 149.101 46.7335 148.358 47.443C147.616 48.1525 146.599 48.5045 145.306 48.5045C144.525 48.5045 143.837 48.3725 143.254 48.103C142.671 47.8335 142.182 47.465 141.797 46.992C141.412 46.519 141.12 45.9635 140.928 45.3255C140.735 44.682 140.636 43.9945 140.636 43.263C140.636 42.5315 140.741 41.8385 140.95 41.1895C141.159 40.546 141.461 39.9795 141.863 39.501C142.264 39.0225 142.765 38.643 143.364 38.3625C143.964 38.082 144.651 37.9445 145.421 37.9445C145.949 37.9445 146.45 38.016 146.923 38.159C147.396 38.302 147.814 38.5055 148.182 38.7805C148.551 39.0555 148.859 39.3965 149.101 39.8035C149.348 40.216 149.508 40.689 149.579 41.2225H148.237C148.089 40.5075 147.753 39.9685 147.242 39.611L147.236 39.6055Z" fill="#BE1734"/>
<path id="Vector_34" d="M150.795 43.12C150.943 42.6525 151.174 42.251 151.471 41.9045C151.774 41.558 152.142 41.2885 152.588 41.0905C153.028 40.8925 153.539 40.7935 154.117 40.7935C154.694 40.7935 155.212 40.8925 155.652 41.0905C156.092 41.2885 156.46 41.558 156.762 41.9045C157.065 42.251 157.291 42.6525 157.439 43.12C157.588 43.5875 157.665 44.088 157.665 44.627C157.665 45.166 157.588 45.6665 157.439 46.1285C157.291 46.5905 157.059 46.992 156.762 47.3385C156.46 47.685 156.092 47.949 155.652 48.147C155.212 48.3395 154.7 48.4385 154.117 48.4385C153.534 48.4385 153.033 48.3395 152.588 48.147C152.142 47.9545 151.774 47.685 151.471 47.3385C151.169 46.992 150.943 46.5905 150.795 46.1285C150.646 45.6665 150.569 45.166 150.569 44.627C150.569 44.088 150.646 43.5875 150.795 43.12ZM152.016 45.8095C152.131 46.156 152.296 46.442 152.505 46.673C152.714 46.904 152.956 47.08 153.231 47.201C153.512 47.322 153.803 47.3825 154.117 47.3825C154.43 47.3825 154.722 47.322 155.002 47.201C155.283 47.08 155.525 46.904 155.728 46.673C155.937 46.442 156.097 46.156 156.218 45.8095C156.333 45.463 156.394 45.0725 156.394 44.627C156.394 44.1815 156.333 43.791 156.218 43.4445C156.102 43.098 155.937 42.812 155.728 42.5755C155.519 42.339 155.277 42.163 155.002 42.0365C154.722 41.9155 154.43 41.855 154.117 41.855C153.803 41.855 153.512 41.9155 153.231 42.0365C152.951 42.1575 152.709 42.339 152.505 42.5755C152.296 42.812 152.137 43.1035 152.016 43.4445C151.9 43.791 151.84 44.1815 151.84 44.627C151.84 45.0725 151.9 45.463 152.016 45.8095Z" fill="#BE1734"/>
<path id="Vector_35" d="M160.173 38.1755V48.2735H158.968V38.1755H160.173Z" fill="#BE1734"/>
<path id="Vector_36" d="M163.126 38.1755V48.2735H161.922V38.1755H163.126Z" fill="#BE1734"/>
<path id="Vector_37" d="M169.984 47.806C169.44 48.2185 168.747 48.4275 167.922 48.4275C167.339 48.4275 166.833 48.334 166.404 48.147C165.975 47.96 165.612 47.696 165.32 47.355C165.029 47.014 164.809 46.6125 164.66 46.1395C164.512 45.6665 164.429 45.155 164.413 44.5995C164.413 44.044 164.495 43.5325 164.666 43.0705C164.836 42.6085 165.073 42.207 165.381 41.866C165.689 41.525 166.052 41.261 166.47 41.074C166.888 40.887 167.35 40.7935 167.85 40.7935C168.499 40.7935 169.038 40.9255 169.467 41.195C169.896 41.4645 170.237 41.8055 170.501 42.218C170.76 42.6305 170.941 43.087 171.04 43.5765C171.139 44.066 171.178 44.5335 171.161 44.979H165.689C165.678 45.298 165.716 45.606 165.804 45.892C165.892 46.178 166.024 46.4365 166.217 46.6565C166.404 46.8765 166.646 47.0525 166.937 47.1845C167.229 47.3165 167.575 47.3825 167.971 47.3825C168.483 47.3825 168.895 47.267 169.225 47.0305C169.55 46.794 169.764 46.4365 169.869 45.958H171.057C170.897 46.7775 170.545 47.3935 169.995 47.8115L169.984 47.806ZM169.693 43.109C169.583 42.856 169.44 42.636 169.253 42.449C169.066 42.262 168.851 42.119 168.604 42.009C168.356 41.899 168.076 41.844 167.779 41.844C167.482 41.844 167.185 41.899 166.937 42.009C166.69 42.119 166.475 42.2675 166.294 42.4545C166.112 42.6415 165.975 42.8615 165.87 43.1145C165.766 43.362 165.705 43.6315 165.689 43.912H169.891C169.874 43.6315 169.808 43.362 169.698 43.1035L169.693 43.109Z" fill="#BE1734"/>
<path id="Vector_38" d="M177.706 50.336C177.156 50.93 176.304 51.227 175.132 51.227C174.791 51.227 174.445 51.1885 174.093 51.1115C173.741 51.0345 173.417 50.9135 173.131 50.743C172.845 50.5725 172.602 50.3525 172.415 50.0775C172.228 49.8025 172.124 49.467 172.102 49.071H173.306C173.317 49.2855 173.384 49.4725 173.51 49.621C173.637 49.7695 173.79 49.896 173.977 49.9895C174.159 50.083 174.363 50.1545 174.577 50.193C174.792 50.237 175 50.259 175.198 50.259C175.594 50.259 175.93 50.193 176.205 50.0555C176.48 49.918 176.705 49.731 176.881 49.489C177.057 49.247 177.19 48.961 177.272 48.62C177.355 48.279 177.393 47.9105 177.393 47.5035V47.025H177.365C177.156 47.476 176.843 47.8115 176.425 48.0205C176.007 48.235 175.562 48.3395 175.089 48.3395C174.544 48.3395 174.066 48.2405 173.659 48.0425C173.252 47.8445 172.916 47.5805 172.641 47.245C172.366 46.9095 172.163 46.519 172.025 46.0735C171.888 45.628 171.822 45.1495 171.822 44.6545C171.822 44.22 171.877 43.7745 171.992 43.318C172.108 42.8615 172.295 42.449 172.559 42.075C172.823 41.701 173.169 41.3985 173.603 41.1565C174.038 40.9145 174.571 40.7935 175.198 40.7935C175.66 40.7935 176.084 40.8925 176.469 41.096C176.854 41.2995 177.157 41.602 177.371 42.009H177.388V40.964H178.52V47.652C178.52 48.851 178.246 49.7475 177.701 50.3415L177.706 50.336ZM176.172 47.047C176.453 46.882 176.673 46.6675 176.843 46.398C177.014 46.1285 177.14 45.826 177.217 45.485C177.3 45.144 177.338 44.8085 177.338 44.4675C177.338 44.1485 177.3 43.8295 177.223 43.5215C177.146 43.208 177.025 42.9275 176.86 42.68C176.695 42.4325 176.48 42.229 176.216 42.0805C175.952 41.932 175.633 41.855 175.253 41.855C174.874 41.855 174.539 41.9265 174.264 42.075C173.989 42.2235 173.769 42.416 173.593 42.6635C173.417 42.911 173.29 43.1915 173.213 43.5105C173.131 43.8295 173.092 44.165 173.092 44.517C173.092 44.847 173.125 45.177 173.191 45.507C173.257 45.837 173.372 46.134 173.532 46.4035C173.691 46.673 173.906 46.8875 174.17 47.0525C174.434 47.2175 174.764 47.3 175.16 47.3C175.556 47.3 175.892 47.2175 176.172 47.0525V47.047Z" fill="#BE1734"/>
<path id="Vector_39" d="M185.324 47.806C184.779 48.2185 184.086 48.4275 183.261 48.4275C182.678 48.4275 182.173 48.334 181.744 48.147C181.315 47.96 180.952 47.696 180.66 47.355C180.369 47.014 180.148 46.6125 180 46.1395C179.851 45.6665 179.769 45.155 179.752 44.5995C179.752 44.044 179.835 43.5325 180.005 43.0705C180.176 42.6085 180.412 42.207 180.72 41.866C181.028 41.525 181.391 41.261 181.809 41.074C182.227 40.887 182.689 40.7935 183.19 40.7935C183.839 40.7935 184.378 40.9255 184.807 41.195C185.236 41.4645 185.577 41.8055 185.841 42.218C186.099 42.6305 186.281 43.087 186.38 43.5765C186.479 44.066 186.517 44.5335 186.501 44.979H181.028C181.017 45.298 181.056 45.606 181.144 45.892C181.232 46.178 181.364 46.4365 181.556 46.6565C181.743 46.8765 181.986 47.0525 182.277 47.1845C182.569 47.3165 182.915 47.3825 183.311 47.3825C183.822 47.3825 184.235 47.267 184.565 47.0305C184.889 46.794 185.104 46.4365 185.208 45.958H186.396C186.237 46.7775 185.885 47.3935 185.335 47.8115L185.324 47.806ZM185.032 43.109C184.922 42.856 184.779 42.636 184.592 42.449C184.405 42.262 184.191 42.119 183.944 42.009C183.696 41.899 183.416 41.844 183.119 41.844C182.822 41.844 182.525 41.899 182.277 42.009C182.03 42.119 181.815 42.2675 181.633 42.4545C181.452 42.6415 181.315 42.8615 181.21 43.1145C181.106 43.362 181.045 43.6315 181.028 43.912H185.23C185.214 43.6315 185.148 43.362 185.038 43.1035L185.032 43.109Z" fill="#BE1734"/>
</g>
</g>
</g>
<defs>
<filter id="filter0_d_45_1670" x="0" y="0" width="228" height="228" filterUnits="userSpaceOnUse" color-interpolation-filters="sRGB">
<feFlood flood-opacity="0" result="BackgroundImageFix"/>
<feColorMatrix in="SourceAlpha" type="matrix" values="0 0 0 0 0 0 0 0 0 0 0 0 0 0 0 0 0 0 127 0" result="hardAlpha"/>
<feOffset dy="4"/>
<feGaussianBlur stdDeviation="2"/>
<feComposite in2="hardAlpha" operator="out"/>
<feColorMatrix type="matrix" values="0 0 0 0 0 0 0 0 0 0 0 0 0 0 0 0 0 0 0.25 0"/>
<feBlend mode="normal" in2="BackgroundImageFix" result="effect1_dropShadow_45_1670"/>
<feBlend mode="normal" in="SourceGraphic" in2="effect1_dropShadow_45_1670" result="shape"/>
</filter>
<clipPath id="clip0_45_1670">
<rect width="220" height="220" fill="white" transform="translate(4)"/>
</clipPath>
</defs>
</svg>
