<svg preserveAspectRatio="none" width="100%" height="100%" overflow="visible" style="display: block;" viewBox="0 0 93.0002 93.0005" fill="none" xmlns="http://www.w3.org/2000/svg">
<g id="Group">
<path id="Vector" d="M93.0002 0H0.0002325V92.9998H93.0002V0Z" fill="#222E65"/>
<path id="Vector_2" d="M17.0495 0H12.5071V0.0123225H17.0495V0Z" fill="white"/>
<path id="Vector_3" d="M1.72957 19.0959C3.26337 20.4465 5.42794 21.1212 8.22515 21.1212C10.9833 21.1212 13.1439 20.4414 14.7063 19.0815C16.2687 17.7216 17.0497 15.6435 17.0497 12.8466V0.012555H12.5073V12.8466C12.5073 14.3899 12.1986 15.5229 11.5818 16.2462C10.9642 16.9695 9.84568 17.331 8.22515 17.331C7.29957 17.331 6.56161 17.201 6.01152 16.9404C5.46212 16.6802 5.03246 16.3429 4.72417 15.9279C4.41541 15.5133 4.2129 15.036 4.11665 14.4957C4.01993 13.9563 3.97203 13.4062 3.97203 12.8466V0.012555H0.0002325V16.5091C0.383393 17.5561 0.95976 18.4184 1.72957 19.0959Z" fill="white"/>
<path id="Vector_4" d="M22.7785 16.2027H18.2361V20.6586H22.7785V16.2027Z" fill="white"/>
<path id="Vector_5" d="M3.69652 46.3284C4.76695 46.6076 5.87132 46.7485 7.00964 46.7485C8.41766 46.7485 9.65712 46.5842 10.7273 46.2568C11.7977 45.929 12.695 45.471 13.418 44.8823C14.1413 44.2943 14.6861 43.5949 15.0527 42.7849C15.4187 41.9749 15.6024 41.0969 15.6024 40.1521C15.6024 38.9944 15.3559 38.0449 14.8642 37.3021C14.3727 36.5597 13.7886 35.9666 13.1142 35.5225C12.439 35.0791 11.7587 34.756 11.0744 34.5535C10.3895 34.3509 9.85428 34.2107 9.46856 34.1338C8.17609 33.8057 7.12961 33.5363 6.32935 33.3238C5.52885 33.1117 4.90156 32.8997 4.44865 32.6872C3.99528 32.4751 3.6914 32.2438 3.53749 31.9929C3.38264 31.7423 3.30592 31.4145 3.30592 31.0095C3.30592 30.5658 3.40217 30.1994 3.59515 29.9097C3.78766 29.6205 4.03387 29.3796 4.3331 29.1867C4.63186 28.9941 4.96481 28.8591 5.33123 28.7816C5.69741 28.7047 6.06407 28.6661 6.43072 28.6661C6.98988 28.6661 7.5058 28.7142 7.97847 28.8105C8.45114 28.9072 8.87034 29.0711 9.23722 29.3022C9.60318 29.5338 9.89752 29.8521 10.1196 30.2571C10.3411 30.6621 10.4716 31.1734 10.5104 31.7907H14.9084C14.9084 30.5949 14.681 29.5773 14.2283 28.7382C13.7749 27.8991 13.1623 27.2097 12.3911 26.6694C11.6197 26.13 10.7371 25.7391 9.74361 25.4978C8.75014 25.2567 7.71365 25.136 6.63299 25.136C5.70764 25.136 4.78159 25.2616 3.85578 25.5122C2.93043 25.7629 2.1004 26.1486 1.36757 26.6694C0.838395 27.0453 0.383393 27.4901 0 28.0016V34.6346C0.25017 34.9436 0.529867 35.2226 0.846997 35.4651C1.42546 35.9089 2.08134 36.2707 2.81465 36.5499C3.54702 36.8299 4.29962 37.0663 5.07106 37.2588C5.82319 37.4713 6.56603 37.6638 7.29887 37.8375C8.03171 38.0112 8.68806 38.2137 9.26652 38.445C9.84521 38.6761 10.3128 38.9656 10.6697 39.3127C11.0263 39.6599 11.2051 40.1132 11.2051 40.6726C11.2051 41.1934 11.0698 41.6228 10.8003 41.9602C10.5297 42.298 10.1926 42.5635 9.78755 42.7558C9.38254 42.9488 8.94892 43.0795 8.48555 43.1467C8.02264 43.2148 7.5888 43.248 7.18355 43.248C6.58533 43.248 6.00664 43.1757 5.44724 43.0311C4.88761 42.8865 4.40053 42.6649 3.98621 42.3657C3.5712 42.0669 3.23826 41.6763 2.98809 41.1939C2.73699 40.7119 2.61214 40.1235 2.61214 39.429H0.0002325V44.2601C0.262958 44.5349 0.549862 44.786 0.861412 45.0127C1.68098 45.61 2.62632 46.0492 3.69652 46.3284Z" fill="white"/>
<path id="Vector_6" d="M20.9782 41.8293H16.4359V46.2852H20.9782V41.8293Z" fill="white"/>
<path id="Vector_7" d="M52.5136 54.8456H44.1518V46.9178H39.6094V67.5761H44.1518V58.6651H52.5136V67.5761H57.0562V46.9178H52.5136V54.8456Z" fill="#F37640"/>
<path id="Vector_8" d="M63.0105 46.9178H58.902V50.3035H63.0105V46.9178Z" fill="#F37640"/>
<path id="Vector_9" d="M63.0105 52.6175H58.902V67.5761H63.0105V52.6175Z" fill="#F37640"/>
<path id="Vector_10" d="M76.1751 59.8364C75.7311 59.5184 75.2249 59.2629 74.6562 59.0699C74.0875 58.8774 73.5035 58.7132 72.9062 58.5781C72.3275 58.4435 71.7581 58.3177 71.1989 58.202C70.6395 58.0864 70.1427 57.956 69.7091 57.8111C69.275 57.6667 68.923 57.4782 68.6528 57.2471C68.3827 57.0155 68.2481 56.7167 68.2481 56.3503C68.2481 56.042 68.3248 55.7958 68.4794 55.6124C68.6335 55.4294 68.8219 55.2894 69.0437 55.1927C69.2652 55.0965 69.5112 55.0332 69.7816 55.0042C70.0513 54.9753 70.3022 54.9604 70.5338 54.9604C71.2661 54.9604 71.9032 55.1009 72.4433 55.3803C72.9831 55.6598 73.2819 56.1955 73.3396 56.9857H77.2463C77.1691 56.0602 76.9319 55.2936 76.5369 54.6854C76.1419 54.0781 75.6443 53.5908 75.0473 53.2241C74.4493 52.8584 73.7692 52.5978 73.0076 52.4434C72.2459 52.2895 71.4596 52.2118 70.6493 52.2118C69.839 52.2118 69.0476 52.2844 68.2769 52.4292C67.5052 52.5738 66.8103 52.8247 66.1937 53.1814C65.5762 53.5382 65.08 54.0253 64.7038 54.6421C64.3276 55.2594 64.1393 56.0506 64.1393 57.0148C64.1393 57.6705 64.2742 58.2254 64.5441 58.6783C64.8138 59.1315 65.1704 59.5074 65.6145 59.8069C66.0579 60.1057 66.5643 60.3468 67.1334 60.5297C67.7021 60.7134 68.2857 60.8729 68.8837 61.0075C70.3496 61.3158 71.4924 61.6246 72.3119 61.9331C73.1312 62.2416 73.5414 62.7046 73.5414 63.3221C73.5414 63.6885 73.4547 63.9926 73.2812 64.2335C73.1078 64.4746 72.8904 64.6675 72.63 64.8119C72.3698 64.9565 72.0803 65.0628 71.7628 65.13C71.4442 65.1979 71.1401 65.2316 70.8514 65.2316C70.4461 65.2316 70.0553 65.1842 69.6796 65.0872C69.3034 64.991 68.9702 64.841 68.6812 64.6385C68.392 64.436 68.1548 64.1753 67.9721 63.8575C67.7886 63.5395 67.697 63.1586 67.697 62.7148H63.791C63.8294 63.7176 64.0561 64.5518 64.4711 65.2174C64.8856 65.8831 65.4155 66.4183 66.0626 66.8233C66.7082 67.2283 67.4462 67.5175 68.2762 67.691C69.1048 67.8644 69.9546 67.9511 70.8223 67.9511C71.6704 67.9511 72.5044 67.8688 73.3252 67.7052C74.1447 67.5412 74.8731 67.2562 75.5095 66.8514C76.1461 66.4464 76.662 65.9112 77.0575 65.2458C77.4527 64.5804 77.651 63.7561 77.651 62.7717C77.651 62.0775 77.5162 61.4944 77.2463 61.0215C76.9752 60.5504 76.6187 60.1547 76.1751 59.8364Z" fill="#F37640"/>
<path id="Vector_11" d="M83.9551 64.1623C83.7235 63.9308 83.6082 63.4681 83.6082 62.7731V55.3664H86.6167V52.6178H83.6082V48.1335H79.4992V52.6178H77.0117V55.3664H79.4992V64.1912C79.4992 64.9433 79.6245 65.5515 79.8754 66.0142C80.126 66.4769 80.4685 66.834 80.9026 67.0846C81.3364 67.3355 81.8377 67.5043 82.4075 67.591C82.9758 67.6777 83.5791 67.7217 84.2152 67.7217C84.6205 67.7217 85.035 67.7112 85.46 67.6926C85.8836 67.6731 86.2696 67.6345 86.6174 67.5768V64.3944C86.4244 64.4332 86.2219 64.4623 86.0101 64.4811C85.7981 64.5006 85.5765 64.5099 85.3452 64.5099C84.6493 64.5092 84.1864 64.3937 83.9551 64.1623Z" fill="#F37640"/>
<path id="Vector_12" d="M93.0002 57.9125H85.5633V61.4423H93.0002V57.9125Z" fill="#F37640"/>
<path id="Vector_13" d="M52.0795 74.6218C51.4041 73.9376 50.5897 73.4063 49.6346 73.0303C48.6799 72.6542 47.6139 72.4658 46.4375 72.4658C45.2605 72.4658 44.1996 72.6542 43.255 73.0303C42.3097 73.4063 41.4994 73.9369 40.8247 74.6218C40.1493 75.3063 39.6282 76.1363 39.262 77.11C38.8956 78.0837 38.7124 79.1688 38.7124 80.365C38.7124 81.5612 38.8956 82.6412 39.262 83.6056C39.6282 84.5702 40.1486 85.3949 40.8247 86.0796C41.4994 86.7643 42.3097 87.2907 43.255 87.6567C44.1996 88.0226 45.2608 88.2061 46.4375 88.2061C47.6139 88.2061 48.6799 88.0226 49.6346 87.6567C50.589 87.2907 51.4034 86.7643 52.0795 86.0796C52.7547 85.3956 53.2755 84.5709 53.6419 83.6056C54.0084 82.6417 54.1918 81.5612 54.1918 80.365C54.1918 79.1688 54.0084 78.0837 53.6419 77.11C53.2755 76.1361 52.7547 75.3063 52.0795 74.6218ZM49.9096 82.1157C49.7941 82.6844 49.5957 83.1959 49.3165 83.6493C49.0368 84.1025 48.6606 84.4647 48.188 84.7344C47.715 85.0048 47.1317 85.1392 46.4379 85.1392C45.7437 85.1392 45.1643 85.0048 44.7014 84.7344C44.2387 84.4647 43.8669 84.1025 43.5875 83.6493C43.308 83.1964 43.1102 82.6851 42.9944 82.1157C42.8786 81.5468 42.8209 80.9632 42.8209 80.3655C42.8209 79.768 42.8786 79.1788 42.9944 78.6001C43.1102 78.0219 43.308 77.5104 43.5875 77.0663C43.8669 76.6229 44.2387 76.2612 44.7014 75.9815C45.1643 75.702 45.743 75.562 46.4379 75.562C47.1319 75.562 47.715 75.702 48.188 75.9815C48.6604 76.2612 49.0366 76.6229 49.3165 77.0663C49.5957 77.5104 49.7941 78.0212 49.9096 78.6001C50.0252 79.1786 50.0831 79.7675 50.0831 80.3655C50.0831 80.9635 50.0252 81.5466 49.9096 82.1157Z" fill="#F37640"/>
<path id="Vector_14" d="M64.6394 72.8711V72.6109C64.3116 72.5147 64.0131 72.4661 63.7431 72.4661C63.2223 72.4661 62.7206 72.5433 62.2386 72.6976C61.7562 72.852 61.3026 73.0696 60.878 73.3489C60.4535 73.6286 60.0775 73.9659 59.7495 74.3612C59.4212 74.7567 59.161 75.1856 58.9685 75.6488H58.9106V72.8711H55.0046V87.8301H59.1129V81.0886C59.1129 80.4138 59.1803 79.7861 59.3156 79.2074C59.4503 78.6292 59.6774 78.1226 59.9955 77.6887C60.3138 77.2551 60.7332 76.9126 61.254 76.6615C61.775 76.4114 62.4116 76.2856 63.1637 76.2856C63.4141 76.2856 63.6745 76.3 63.9449 76.3293C64.2146 76.3583 64.4462 76.3923 64.6387 76.4307V74.9271L63.8717 72.8718L64.6394 72.8711Z" fill="#F37640"/>
<path id="Vector_15" d="M63.8724 72.8711L64.6394 74.9264V72.8711H63.8724Z" fill="#F37640"/>
<g id="Group_2">
<path id="Vector_16" d="M71.1057 92.2853C71.8962 91.765 72.5137 90.8966 72.9573 89.6815L79.2072 72.8711H74.9538L71.6844 83.1139H71.6263L68.2408 72.8711H64.6387V74.9264L69.1092 86.9043C69.225 87.1936 69.2827 87.5023 69.2827 87.8299C69.2827 88.273 69.1522 88.6781 68.8916 89.0456C68.6314 89.4114 68.2306 89.6239 67.691 89.6815C67.2862 89.7006 66.8814 89.6911 66.4755 89.6525C66.0707 89.6139 65.6752 89.5753 65.2888 89.5371V92.9226C65.615 92.9521 65.9363 92.9765 66.2567 93.0005H68.94C69.8186 92.8933 70.5419 92.6566 71.1057 92.2853Z" fill="#F37640"/>
</g>
</g>
</svg>
