<svg preserveAspectRatio="none" width="100%" height="100%" overflow="visible" style="display: block;" viewBox="0 0 93.2558 93" fill="none" xmlns="http://www.w3.org/2000/svg">
<g id="Group">
<path id="Vector" d="M93.1395 0H0.1395V93H93.1395V0Z" fill="#F4D019"/>
<path id="Vector_2" d="M34.224 24.6683V28.3883H30.1552V38.3858C30.1552 39.3158 30.318 39.9435 30.6202 40.269C30.9225 40.5712 31.5502 40.734 32.5035 40.734C32.8057 40.734 33.108 40.7108 33.4102 40.6875C33.6892 40.6643 33.9682 40.6178 34.224 40.5713V44.8725C33.759 44.9423 33.2242 45.012 32.6662 45.0352C32.085 45.0585 31.527 45.0817 30.9922 45.0817C30.132 45.0817 29.3182 45.0353 28.551 44.8958C27.7837 44.7795 27.1095 44.547 26.5282 44.2215C25.947 43.8727 25.482 43.4078 25.1332 42.78C24.7845 42.1523 24.6217 41.3385 24.6217 40.3155V28.4115H21.2505V24.6915H24.5985V18.6465H30.1552V24.6915L34.224 24.6683Z" fill="#76AE43"/>
<path id="Vector_3" d="M34.6425 30.876C34.7122 29.574 35.0378 28.5045 35.619 27.6443C36.2003 26.784 36.921 26.0865 37.8045 25.575C38.688 25.0635 39.6877 24.6915 40.8037 24.459C41.9197 24.2497 43.0125 24.1335 44.1518 24.1335C45.1748 24.1335 46.1978 24.2032 47.244 24.3427C48.2903 24.4822 49.2435 24.7613 50.1037 25.1798C50.964 25.5983 51.6615 26.1795 52.2195 26.9235C52.7775 27.6675 53.0333 28.644 53.0333 29.8763V40.3852C53.0333 41.292 53.0797 42.1755 53.196 43.0125C53.289 43.8495 53.475 44.4773 53.754 44.8958H48.1275C48.0345 44.5935 47.9415 44.268 47.8718 43.9425C47.802 43.617 47.7555 43.2915 47.7322 42.9427C46.8487 43.8495 45.8025 44.5005 44.6168 44.8492C43.4078 45.2212 42.1988 45.4073 40.9433 45.4073C39.99 45.4073 39.0832 45.291 38.2462 45.0585C37.4092 44.826 36.6885 44.454 36.0608 43.9658C35.433 43.4775 34.9447 42.8498 34.596 42.0825C34.2472 41.3385 34.0612 40.4317 34.0612 39.3855C34.0612 38.2462 34.2705 37.293 34.6658 36.549C35.061 35.805 35.5957 35.2238 36.2235 34.782C36.8512 34.3403 37.5953 34.0148 38.409 33.7823C39.2228 33.573 40.0598 33.387 40.8968 33.2475C41.7338 33.108 42.5475 33.015 43.3612 32.9452C44.175 32.8755 44.8725 32.7592 45.5003 32.5965C46.128 32.4337 46.6163 32.2245 46.9883 31.9223C47.3603 31.62 47.523 31.1782 47.4997 30.6202C47.4997 30.0157 47.4067 29.5508 47.1975 29.202C47.0115 28.8533 46.7325 28.5743 46.407 28.3883C46.0815 28.2023 45.7095 28.0628 45.2678 27.993C44.8493 27.9233 44.3843 27.9 43.8728 27.9C42.78 27.9 41.9198 28.1325 41.292 28.5975C40.6643 29.0625 40.2923 29.853 40.1993 30.9458H34.6425V30.876ZM47.4533 34.9913C47.2208 35.2005 46.9185 35.3633 46.5697 35.4795C46.221 35.5958 45.849 35.6887 45.4305 35.7817C45.0353 35.8515 44.5935 35.9212 44.1518 35.9677C43.71 36.0142 43.2683 36.084 42.8265 36.1538C42.408 36.2235 41.9895 36.3398 41.5943 36.456C41.199 36.5955 40.8503 36.7583 40.548 36.9908C40.2458 37.2233 40.0132 37.5022 39.8272 37.8277C39.6412 38.1765 39.5483 38.595 39.5483 39.1065C39.5483 39.5947 39.6412 40.0133 39.8272 40.362C40.0132 40.7108 40.269 40.9665 40.5712 41.1525C40.8735 41.3385 41.2455 41.478 41.664 41.571C42.0825 41.6408 42.501 41.6873 42.9428 41.6873C44.0355 41.6873 44.8725 41.5012 45.477 41.1292C46.0815 40.7572 46.5232 40.3388 46.8022 39.8273C47.0812 39.3158 47.2673 38.8042 47.337 38.2927C47.4068 37.7812 47.43 37.3628 47.43 37.0373L47.4533 34.9913Z" fill="#76AE43"/>
<path id="Vector_4" d="M66.03 24.6683V28.3883H61.9612V38.3858C61.9612 39.3158 62.124 39.9435 62.4262 40.269C62.7285 40.5712 63.3563 40.734 64.3095 40.734C64.6118 40.734 64.914 40.7108 65.2162 40.6875C65.4952 40.6643 65.7742 40.6178 66.03 40.5713V44.8725C65.565 44.9423 65.0303 45.012 64.4723 45.0352C63.891 45.0585 63.333 45.0817 62.7983 45.0817C61.938 45.0817 61.1243 45.0353 60.357 44.8958C59.5898 44.7795 58.9155 44.547 58.3343 44.2215C57.753 43.8727 57.288 43.4078 56.9393 42.78C56.5905 42.1523 56.4278 41.3385 56.4278 40.3155V28.4115H53.0798V24.6915H56.4278V18.6465H61.9612V24.6915L66.03 24.6683Z" fill="#76AE43"/>
<path id="Vector_5" d="M77.5387 31.8292V36.5955H65.7742V31.8292H77.5387Z" fill="#76AE43"/>
<path id="Vector_6" d="M12.3457 71.0985C12.6015 71.5402 12.9037 71.889 13.299 72.1447C13.6942 72.4237 14.136 72.6097 14.6475 72.7492C15.159 72.8887 15.6705 72.9353 16.2285 72.9353C16.6237 72.9353 17.019 72.8888 17.4607 72.7958C17.8792 72.7028 18.2745 72.5632 18.6232 72.3772C18.972 72.1912 19.2742 71.9122 19.5067 71.5867C19.7392 71.2612 19.8555 70.8428 19.8555 70.3545C19.8555 69.5175 19.2975 68.8898 18.2047 68.4713C17.0887 68.0528 15.5542 67.6343 13.578 67.2158C12.7642 67.0298 11.9737 66.8205 11.2065 66.5647C10.4392 66.309 9.765 65.9835 9.1605 65.5883C8.556 65.193 8.091 64.6815 7.719 64.0538C7.347 63.4493 7.161 62.7052 7.161 61.7985C7.161 60.4965 7.41675 59.427 7.92825 58.59C8.43975 57.753 9.114 57.102 9.92775 56.6138C10.7647 56.1255 11.6947 55.8 12.741 55.5908C13.7872 55.4048 14.8567 55.2885 15.9495 55.2885C17.0422 55.2885 18.1117 55.3815 19.1347 55.5908C20.1577 55.8 21.0877 56.1488 21.8782 56.637C22.692 57.1253 23.3662 57.7995 23.8777 58.6133C24.4125 59.427 24.738 60.4733 24.831 61.7288H19.5997C19.53 60.6593 19.1115 59.9385 18.3907 59.5665C17.67 59.1945 16.8097 59.0085 15.81 59.0085C15.5077 59.0085 15.159 59.0318 14.787 59.0783C14.415 59.1248 14.0895 59.1945 13.7872 59.334C13.485 59.4735 13.2292 59.6595 13.02 59.892C12.8107 60.1478 12.7177 60.4732 12.7177 60.8917C12.7177 61.38 12.9037 61.7985 13.2757 62.1008C13.6477 62.403 14.1127 62.6587 14.694 62.868C15.2752 63.054 15.9495 63.24 16.6935 63.4028C17.4375 63.5655 18.228 63.7282 18.9952 63.9142C19.809 64.1002 20.5995 64.3095 21.3667 64.5885C22.134 64.8442 22.8082 65.193 23.4127 65.6347C24.0172 66.0532 24.4822 66.588 24.8542 67.239C25.2262 67.8668 25.4122 68.6572 25.4122 69.6105C25.4122 70.9357 25.1565 72.0517 24.6217 72.9585C24.087 73.8652 23.3895 74.586 22.5292 75.1208C21.669 75.6788 20.6925 76.0508 19.5765 76.2833C18.4605 76.4925 17.3445 76.6088 16.2052 76.6088C15.0427 76.6088 13.8802 76.4925 12.7642 76.26C11.6482 76.0275 10.6485 75.6323 9.78825 75.0975C8.90475 74.5395 8.20725 73.8188 7.64925 72.9353C7.09125 72.0285 6.789 70.9125 6.7425 69.564H12.0202C11.9737 70.1453 12.1132 70.6567 12.3457 71.0985Z" fill="#76AE43"/>
<path id="Vector_7" d="M37.5022 55.9162V59.6362H33.4335V69.6337C33.4335 70.5637 33.5962 71.1915 33.8985 71.517C34.2007 71.8193 34.8285 71.982 35.7818 71.982C36.084 71.982 36.3862 71.9587 36.6885 71.9355C36.9675 71.9122 37.2465 71.8657 37.5022 71.8192V76.1205C37.0372 76.1902 36.5025 76.26 35.9445 76.2833C35.3633 76.3065 34.8053 76.3297 34.2705 76.3297C33.4103 76.3297 32.5965 76.2832 31.8293 76.1437C31.062 76.0275 30.3877 75.795 29.8065 75.4695C29.2252 75.1208 28.7602 74.6557 28.4115 74.028C28.0627 73.4002 27.9 72.5865 27.9 71.5635V59.6595H24.552V55.9395H27.9V49.8945H33.4568V55.9395H37.5022V55.9162Z" fill="#76AE43"/>
<path id="Vector_8" d="M38.1765 52.8008V48.2438H43.7333V52.8008H38.1765ZM43.7333 55.9163V76.0972H38.1765V55.9163H43.7333Z" fill="#76AE43"/>
<path id="Vector_9" d="M55.2187 59.5433C54.3352 59.5433 53.5913 59.7525 52.9868 60.1478C52.3823 60.543 51.894 61.0777 51.522 61.7055C51.15 62.3332 50.871 63.054 50.7315 63.8213C50.5688 64.5885 50.499 65.3557 50.499 66.0997C50.499 66.8205 50.5688 67.5645 50.7315 68.3317C50.8943 69.0757 51.15 69.7733 51.4987 70.3778C51.8475 70.9823 52.3358 71.4938 52.917 71.889C53.5215 72.2843 54.2422 72.4703 55.1025 72.4703C56.4277 72.4703 57.4508 72.0982 58.1715 71.3542C58.8923 70.6102 59.334 69.6105 59.52 68.355H64.8675C64.4955 71.0288 63.4725 73.0747 61.752 74.493C60.0315 75.888 57.8228 76.6088 55.149 76.6088C53.6378 76.6088 52.2427 76.353 50.9872 75.8415C49.7317 75.33 48.639 74.6325 47.7555 73.7025C46.872 72.7958 46.1745 71.703 45.6862 70.4475C45.198 69.192 44.9422 67.797 44.9422 66.2858C44.9422 64.728 45.1748 63.2632 45.6165 61.938C46.0815 60.5895 46.7325 59.427 47.616 58.4738C48.4995 57.4973 49.5923 56.73 50.8478 56.1953C52.1265 55.6373 53.5912 55.3815 55.2187 55.3815C56.4045 55.3815 57.567 55.5443 58.683 55.8465C59.799 56.1488 60.7755 56.637 61.659 57.2648C62.5425 57.8925 63.24 58.7063 63.798 59.6363C64.356 60.5895 64.6582 61.7055 64.728 63.0075H59.3108C58.962 60.7058 57.5902 59.5433 55.2187 59.5433Z" fill="#76AE43"/>
<path id="Vector_10" d="M70.4242 71.0985C70.68 71.5402 70.9823 71.889 71.3775 72.1447C71.7728 72.4237 72.2145 72.6097 72.726 72.7492C73.2375 72.8887 73.7723 72.9353 74.307 72.9353C74.7023 72.9353 75.0975 72.8888 75.5392 72.7958C75.9577 72.7028 76.353 72.5632 76.7017 72.3772C77.0505 72.1912 77.3528 71.9122 77.5853 71.5867C77.8178 71.2612 77.934 70.8428 77.934 70.3545C77.934 69.5175 77.376 68.8898 76.2833 68.4713C75.1673 68.0528 73.6328 67.6343 71.6565 67.2158C70.8428 67.0298 70.0523 66.8205 69.285 66.5647C68.5178 66.309 67.8435 65.9835 67.239 65.5883C66.6345 65.193 66.1695 64.6815 65.7975 64.0538C65.4255 63.4493 65.2395 62.7052 65.2395 61.7985C65.2395 60.4965 65.4952 59.427 66.0067 58.59C66.5182 57.753 67.1925 57.102 68.0063 56.6138C68.8433 56.1255 69.7733 55.8 70.8195 55.5908C71.8658 55.4048 72.9352 55.2885 74.028 55.2885C75.1207 55.2885 76.1903 55.3815 77.2133 55.5908C78.2363 55.8 79.1662 56.1488 79.9567 56.637C80.7705 57.1253 81.4448 57.7995 81.9563 58.6133C82.491 59.427 82.8165 60.4733 82.9095 61.7288H77.6317C77.562 60.6593 77.1435 59.9385 76.4228 59.5665C75.702 59.1945 74.8418 59.0085 73.842 59.0085C73.5398 59.0085 73.191 59.0318 72.819 59.0783C72.447 59.1248 72.1215 59.1945 71.8192 59.334C71.517 59.4735 71.2613 59.6595 71.052 59.892C70.8428 60.1478 70.7498 60.4732 70.7498 60.8917C70.7498 61.38 70.9358 61.7985 71.3078 62.1008C71.6798 62.403 72.1448 62.6587 72.726 62.868C73.3073 63.054 73.9815 63.24 74.7255 63.4028C75.4695 63.5655 76.26 63.7282 77.0273 63.9142C77.841 64.1002 78.6315 64.3095 79.3988 64.5885C80.166 64.8442 80.8403 65.193 81.4448 65.6347C82.0493 66.0532 82.5143 66.588 82.8863 67.239C83.2583 67.8668 83.4442 68.6572 83.4442 69.6105C83.4442 70.9357 83.1885 72.0517 82.6538 72.9585C82.119 73.8652 81.4215 74.586 80.5613 75.1208C79.701 75.6788 78.7245 76.0508 77.6085 76.2833C76.4925 76.4925 75.3765 76.6088 74.2373 76.6088C73.0748 76.6088 71.9123 76.4925 70.7963 76.26C69.6803 76.0275 68.6805 75.6323 67.797 75.0975C66.9135 74.5395 66.216 73.8188 65.658 72.9353C65.1 72.0285 64.7978 70.9125 64.7513 69.564H70.029C70.0523 70.1453 70.1685 70.6567 70.4242 71.0985Z" fill="#76AE43"/>
<g id="Group_2">
<g id="Vector_11">
</g>
<path id="Vector_12" d="M21.2505 32.736C20.5763 31.7363 19.809 30.9225 18.879 30.3412C17.9722 29.7367 17.0423 29.3183 16.1355 29.0393C15.2055 28.7603 14.4848 28.5742 13.9733 28.4812C12.2295 28.0395 10.8112 27.6675 9.74175 27.3885C8.67225 27.1095 7.812 26.8072 7.2075 26.5282C6.603 26.2492 6.1845 25.9237 5.97525 25.5982C5.766 25.2495 5.673 24.8077 5.673 24.273C5.673 23.6685 5.8125 23.1802 6.06825 22.785C6.324 22.3897 6.6495 22.0643 7.068 21.8085C7.46325 21.5528 7.92825 21.3667 8.4165 21.2505C8.90475 21.1575 9.41625 21.0877 9.9045 21.0877C10.6485 21.0877 11.346 21.1575 11.997 21.2737C12.6248 21.4132 13.206 21.6225 13.6942 21.948C14.1825 22.2502 14.5778 22.692 14.88 23.2267C15.1823 23.7848 15.345 24.459 15.4147 25.296H21.3435C21.3435 23.6918 21.0413 22.32 20.4368 21.1807C19.8323 20.0415 18.9952 19.1115 17.949 18.3907C16.9027 17.67 15.717 17.1353 14.3685 16.8098C13.02 16.4843 11.625 16.3215 10.1602 16.3215C8.90475 16.3215 7.64925 16.4842 6.417 16.833C5.1615 17.1817 4.0455 17.6932 3.069 18.3907C2.06925 19.0882 1.27875 19.9717 0.67425 21.018C0.465 21.3667 0.30225 21.7155 0.186 22.1107V27.342C0.279 27.5745 0.372 27.807 0.48825 28.0162C0.9765 28.923 1.60425 29.667 2.3715 30.2715C3.162 30.876 4.0455 31.3642 5.022 31.7362C6.02175 32.1082 7.0215 32.4338 8.06775 32.6895C9.09075 32.9685 10.0905 33.2475 11.067 33.48C12.0668 33.7125 12.9503 33.9915 13.7175 34.2937C14.508 34.596 15.1358 34.9912 15.6008 35.4562C16.089 35.9212 16.3215 36.5257 16.3215 37.293C16.3215 37.9905 16.1355 38.5717 15.7635 39.0367C15.3915 39.5017 14.9497 39.8505 14.3917 40.1062C13.8337 40.362 13.2525 40.548 12.6248 40.641C11.997 40.734 11.4157 40.7805 10.8577 40.7805C10.044 40.7805 9.27675 40.6875 8.5095 40.4783C7.7655 40.2923 7.09125 39.99 6.53325 39.5715C5.97525 39.1762 5.5335 38.6415 5.18475 37.9905C4.836 37.3395 4.67325 36.549 4.67325 35.619H0.1395V40.8037C0.744 41.7337 1.46475 42.5243 2.34825 43.152C3.46425 43.9658 4.71975 44.547 6.1845 44.919C7.626 45.291 9.114 45.477 10.6485 45.477C12.555 45.477 14.229 45.2445 15.6705 44.8027C17.112 44.361 18.321 43.7332 19.2975 42.9427C20.274 42.1522 21.018 41.199 21.5063 40.1062C21.9945 39.0135 22.2502 37.8277 22.2502 36.549C22.2502 35.0145 21.9248 33.7358 21.2505 32.736Z" fill="#76AE43"/>
<path id="Vector_13" d="M5.64975 55.9162H0.1395V76.0972H5.64975V55.9162Z" fill="#76AE43"/>
<path id="Vector_14" d="M5.64975 48.2205H0.1395V52.7775H5.64975V48.2205Z" fill="#76AE43"/>
</g>
<g id="Group_3">
<path id="Vector_15" d="M93.2558 82.0492H1.49012e-09V93H93.2558V82.0492Z" fill="#73A94E"/>
<g id="Group_4">
<path id="Vector_16" d="M33.852 86.0947H34.4333V87.048H35.5493V86.0947H36.1305V88.6755H35.5493V87.5595H34.4333V88.6755H33.852V86.0947Z" fill="#FFCE00"/>
<path id="Vector_17" d="M36.6188 86.0947H37.2V88.6755H36.6188V86.0947Z" fill="#FFCE00"/>
<path id="Vector_18" d="M40.0365 88.5128C39.8738 88.6058 39.6878 88.6522 39.5018 88.6987C39.3158 88.7452 39.1298 88.7685 38.9438 88.7685C38.7345 88.7685 38.5485 88.7452 38.3858 88.6755C38.223 88.6057 38.0603 88.5128 37.944 88.3965C37.8278 88.2803 37.7115 88.1407 37.665 87.978C37.5953 87.8152 37.572 87.6292 37.572 87.42C37.572 87.2107 37.5953 87.0248 37.665 86.862C37.7348 86.6993 37.8278 86.5597 37.944 86.4435C38.0603 86.3272 38.223 86.2343 38.3858 86.1645C38.5485 86.0948 38.7345 86.0715 38.9438 86.0715C39.153 86.0715 39.339 86.0947 39.525 86.1412C39.6878 86.1877 39.8505 86.2808 39.99 86.397L39.5948 86.8387C39.525 86.769 39.432 86.6993 39.339 86.6528C39.246 86.6063 39.1298 86.583 38.967 86.583C38.8508 86.583 38.7345 86.6063 38.6415 86.6528C38.5485 86.6993 38.4555 86.7457 38.3858 86.8155C38.316 86.8852 38.2695 86.9782 38.223 87.0712C38.1765 87.1642 38.1765 87.2805 38.1765 87.3967C38.1765 87.513 38.1998 87.6292 38.223 87.7222C38.2695 87.8152 38.316 87.9082 38.3858 87.978C38.4555 88.0477 38.5485 88.1175 38.6415 88.1408C38.7345 88.1873 38.8508 88.2105 38.967 88.2105C39.0833 88.2105 39.1995 88.1873 39.2925 88.164C39.3855 88.1408 39.4553 88.1175 39.5018 88.071V87.6525H39.0368V87.1178H40.0598V88.5128H40.0365Z" fill="#FFCE00"/>
<path id="Vector_19" d="M40.548 86.0947H41.1293V87.048H42.2453V86.0947H42.8265V88.6755H42.222V87.5595H41.106V88.6755H40.5247V86.0947H40.548Z" fill="#FFCE00"/>
<path id="Vector_20" d="M45.6862 86.7458C45.6397 86.676 45.57 86.6528 45.5003 86.6063C45.4305 86.583 45.3375 86.5598 45.2678 86.5598C45.2213 86.5598 45.1748 86.5598 45.1515 86.583C45.105 86.583 45.0585 86.6063 45.0353 86.6295C44.9888 86.6528 44.9655 86.676 44.9423 86.7225C44.919 86.7458 44.8958 86.7923 44.8958 86.8388C44.8958 86.9085 44.919 86.9783 44.9887 87.0248C45.0585 87.0713 45.1282 87.0945 45.2212 87.141C45.3142 87.1643 45.4073 87.2108 45.5003 87.234C45.5933 87.2573 45.7095 87.3038 45.7793 87.3503C45.8723 87.3968 45.942 87.4665 46.0118 87.5595C46.0815 87.6525 46.1048 87.7688 46.1048 87.9315C46.1048 88.071 46.0815 88.2105 46.035 88.3035C45.9885 88.4198 45.9188 88.4895 45.8258 88.5593C45.7328 88.629 45.6398 88.6755 45.5003 88.722C45.384 88.7453 45.2445 88.7685 45.1283 88.7685C44.9655 88.7685 44.8028 88.7453 44.6633 88.6988C44.5238 88.6523 44.3843 88.5593 44.268 88.443L44.6633 88.0013C44.733 88.071 44.8028 88.1408 44.8958 88.1873C44.9888 88.2338 45.0818 88.257 45.1748 88.257C45.2213 88.257 45.2678 88.257 45.3143 88.2338C45.3608 88.2338 45.4073 88.2105 45.4305 88.1873C45.477 88.164 45.5003 88.1408 45.5235 88.0943C45.5468 88.071 45.5468 88.0245 45.5468 87.978C45.5468 87.9083 45.5235 87.8385 45.4537 87.792C45.384 87.7455 45.3142 87.699 45.2212 87.6758C45.1282 87.6525 45.0353 87.606 44.919 87.5828C44.8028 87.5595 44.7098 87.513 44.6168 87.4433C44.5238 87.3968 44.454 87.327 44.3843 87.234C44.3145 87.141 44.2912 87.0248 44.2912 86.8853C44.2912 86.7458 44.3145 86.6295 44.3843 86.5133C44.4308 86.397 44.5238 86.3273 44.5935 86.2575C44.6865 86.1878 44.7795 86.1413 44.919 86.0948C45.0353 86.0483 45.1515 86.0483 45.291 86.0483C45.4305 86.0483 45.57 86.0715 45.7095 86.118C45.849 86.1645 45.9653 86.2343 46.0815 86.3273L45.6862 86.7458Z" fill="#FFCE00"/>
<path id="Vector_21" d="M48.174 86.769C48.1275 86.6993 48.0578 86.6528 47.9648 86.6063C47.8718 86.5598 47.7788 86.5597 47.6858 86.5597C47.5695 86.5597 47.4765 86.583 47.3835 86.6295C47.2905 86.676 47.2208 86.7225 47.151 86.7922C47.0813 86.862 47.0348 86.955 46.9883 87.048C46.9418 87.141 46.9418 87.2572 46.9418 87.3735C46.9418 87.4897 46.965 87.606 46.9883 87.699C47.0348 87.792 47.0813 87.885 47.151 87.9547C47.2208 88.0245 47.2905 88.0943 47.3835 88.1175C47.4765 88.164 47.5695 88.1872 47.6625 88.1872C47.7788 88.1872 47.8718 88.164 47.9648 88.1175C48.0578 88.071 48.1275 88.0013 48.1973 87.9083L48.6623 88.257C48.546 88.4198 48.4065 88.5128 48.2438 88.6058C48.081 88.6755 47.895 88.722 47.7323 88.722C47.523 88.722 47.337 88.6988 47.1743 88.629C47.0115 88.5593 46.8488 88.4663 46.7325 88.35C46.6163 88.2338 46.5 88.0943 46.4535 87.9315C46.3838 87.7688 46.3605 87.5827 46.3605 87.3735C46.3605 87.1642 46.3838 86.9783 46.4535 86.8155C46.5233 86.6528 46.6163 86.5133 46.7325 86.397C46.8488 86.2808 47.0115 86.1878 47.1743 86.118C47.337 86.0483 47.523 86.025 47.7323 86.025C47.802 86.025 47.8718 86.025 47.9648 86.0483C48.0345 86.0715 48.1275 86.0715 48.1973 86.118C48.267 86.1413 48.3368 86.1878 48.4298 86.2343C48.4995 86.2808 48.5693 86.3505 48.6158 86.4203L48.174 86.769Z" fill="#FFCE00"/>
<path id="Vector_22" d="M48.9878 86.0947H49.569V87.048H50.685V86.0947H51.243V88.6755H50.685V87.5595H49.569V88.6755H48.9878V86.0947Z" fill="#FFCE00"/>
<path id="Vector_23" d="M51.6383 87.3968C51.6383 87.1875 51.6615 87.0015 51.7313 86.8388C51.801 86.676 51.894 86.5365 52.0103 86.4203C52.1265 86.304 52.2893 86.211 52.452 86.1413C52.6148 86.0715 52.8008 86.0483 53.01 86.0483C53.2193 86.0483 53.4053 86.0715 53.568 86.1413C53.7308 86.211 53.8935 86.304 54.0098 86.4203C54.126 86.5365 54.2423 86.676 54.2888 86.8388C54.3585 87.0015 54.3818 87.1875 54.3818 87.3968C54.3818 87.606 54.3585 87.792 54.2888 87.9548C54.219 88.1175 54.126 88.257 54.0098 88.3733C53.8935 88.4895 53.7308 88.5825 53.568 88.6523C53.4053 88.722 53.2193 88.7453 53.01 88.7453C52.8008 88.7453 52.6148 88.722 52.452 88.6523C52.2893 88.5825 52.1265 88.4895 52.0103 88.3733C51.894 88.257 51.7778 88.1175 51.7313 87.9548C51.6615 87.792 51.6383 87.606 51.6383 87.3968ZM52.2195 87.3968C52.2195 87.513 52.2428 87.6293 52.266 87.7223C52.3125 87.8153 52.359 87.9083 52.4288 87.978C52.4985 88.0478 52.5915 88.1175 52.6845 88.1408C52.7775 88.1873 52.8938 88.2105 53.01 88.2105C53.1263 88.2105 53.2425 88.1873 53.3355 88.1408C53.4285 88.0943 53.5215 88.0478 53.5913 87.978C53.661 87.9083 53.7075 87.8153 53.754 87.7223C53.8005 87.6293 53.8005 87.513 53.8005 87.3968C53.8005 87.2805 53.7773 87.1643 53.754 87.0713C53.7308 86.9783 53.661 86.8853 53.5913 86.8155C53.5215 86.7458 53.4285 86.676 53.3355 86.6528C53.2425 86.6063 53.1263 86.583 53.01 86.583C52.8938 86.583 52.7775 86.6063 52.6845 86.6528C52.5915 86.6993 52.4985 86.7458 52.4288 86.8155C52.359 86.8853 52.3125 86.9783 52.266 87.0713C52.2428 87.1643 52.2195 87.2805 52.2195 87.3968Z" fill="#FFCE00"/>
<path id="Vector_24" d="M54.6608 87.3968C54.6608 87.1875 54.684 87.0015 54.7537 86.8388C54.8235 86.676 54.9165 86.5365 55.0328 86.4203C55.149 86.304 55.3118 86.211 55.4745 86.1413C55.6373 86.0715 55.8232 86.0483 56.0325 86.0483C56.2417 86.0483 56.4278 86.0715 56.5905 86.1413C56.7533 86.211 56.916 86.304 57.0323 86.4203C57.1485 86.5365 57.2647 86.676 57.3112 86.8388C57.381 87.0015 57.4043 87.1875 57.4043 87.3968C57.4043 87.606 57.381 87.792 57.3112 87.9548C57.2415 88.1175 57.1485 88.257 57.0323 88.3733C56.916 88.4895 56.7533 88.5825 56.5905 88.6523C56.4278 88.722 56.2417 88.7453 56.0325 88.7453C55.8232 88.7453 55.6373 88.722 55.4745 88.6523C55.3118 88.5825 55.149 88.4895 55.0328 88.3733C54.9165 88.257 54.8002 88.1175 54.7537 87.9548C54.7072 87.792 54.6608 87.606 54.6608 87.3968ZM55.2653 87.3968C55.2653 87.513 55.2885 87.6293 55.3118 87.7223C55.3583 87.8153 55.4048 87.9083 55.4745 87.978C55.5443 88.0478 55.6373 88.1175 55.7303 88.1408C55.8233 88.1873 55.9395 88.2105 56.0558 88.2105C56.172 88.2105 56.2882 88.1873 56.3812 88.1408C56.4742 88.0943 56.5673 88.0478 56.637 87.978C56.7068 87.9083 56.7533 87.8153 56.7998 87.7223C56.8463 87.6293 56.8462 87.513 56.8462 87.3968C56.8462 87.2805 56.823 87.1643 56.7998 87.0713C56.7765 86.9783 56.7068 86.8853 56.637 86.8155C56.5673 86.7458 56.4742 86.676 56.3812 86.6528C56.2882 86.6063 56.172 86.583 56.0558 86.583C55.9395 86.583 55.8233 86.6063 55.7303 86.6528C55.6373 86.6993 55.5443 86.7458 55.4745 86.8155C55.4048 86.8853 55.3583 86.9783 55.3118 87.0713C55.2885 87.1643 55.2653 87.2805 55.2653 87.3968Z" fill="#FFCE00"/>
<path id="Vector_25" d="M57.8693 86.0947H58.4505V88.164H59.4968V88.6988H57.8693V86.0947Z" fill="#FFCE00"/>
</g>
</g>
</g>
</svg>
