<svg preserveAspectRatio="none" width="100%" height="100%" overflow="visible" style="display: block;" viewBox="0 0 98 98" fill="none" xmlns="http://www.w3.org/2000/svg">
<g id="college_algebra_2e_web_card 1" filter="url(#filter0_d_25_254)">
<g clip-path="url(#clip0_25_254)">
<path id="Vector" d="M94 0H4V90H94V0Z" fill="var(--fill-0, #FFCF00)"/>
<g id="Group">
<g id="Group_2">
<path id="Vector_2" d="M61.465 49.725C61.645 47.8125 62.815 47.07 64.66 47.07C66.37 47.07 67.7875 47.385 67.7875 49.455C67.7875 51.435 65.0425 51.3225 62.0725 51.7725C59.08 52.1775 56.0875 53.1225 56.0875 57.105C56.0875 60.705 58.7425 62.37 62.0725 62.37C64.21 62.37 66.46 61.785 67.99 60.1875C68.035 60.7725 68.17 61.335 68.3275 61.8975H73.2325C72.7825 61.1775 72.625 59.58 72.625 57.9825V48.825C72.625 44.6175 68.4175 43.83 64.9075 43.83C60.97 43.83 56.92 45.18 56.65 49.7025H61.465V49.725ZM67.7875 55.1025C67.7875 56.16 67.6525 59.1525 63.8725 59.1525C62.2975 59.1525 60.9025 58.7025 60.9025 56.9025C60.9025 55.125 62.2525 54.63 63.76 54.315C65.2675 54.045 66.955 54 67.765 53.3025V55.1025H67.7875ZM44.9725 61.8975H49.81V53.9775C49.81 50.8725 51.025 48.33 54.58 48.33C55.165 48.33 55.8625 48.3975 56.3125 48.51V44.01C55.9975 43.8975 55.5925 43.83 55.255 43.83C52.915 43.83 50.53 45.36 49.6525 47.565H49.585V44.325H44.995V61.8975H44.9725ZM39.1225 53.1225C39.1225 56.0475 37.8625 58.725 35.005 58.725C32.1475 58.725 30.8875 56.0475 30.8875 53.1225C30.8875 50.1525 32.1475 47.475 35.005 47.475C37.8625 47.475 39.1225 50.175 39.1225 53.1225ZM26.23 61.8975H30.82V59.6475H30.8875C31.945 61.5825 34.0825 62.37 36.67 62.37C40.18 62.37 43.9375 59.5575 43.9375 53.0775C43.9375 46.6425 40.1575 43.83 36.67 43.83C34.4875 43.83 32.3275 44.64 31.135 46.44H31.0675V37.5975H26.23V61.8975ZM12.73 51.2325C12.7975 49.8825 13.675 47.4975 16.735 47.4975C19.075 47.4975 20.1325 48.78 20.5825 51.2325H12.73ZM25.42 54.2925C25.7575 48.8925 22.8775 43.8525 16.8925 43.8525C11.56 43.8525 7.915 47.8575 7.915 53.145C7.915 58.59 11.3575 62.3925 16.8925 62.3925C20.875 62.3925 23.755 60.615 25.1275 56.475H20.8525C20.5375 57.555 18.985 58.7475 17.05 58.7475C14.3725 58.7475 12.865 57.3525 12.73 54.2925H25.42Z" fill="var(--fill-0, #00C1DE)"/>
<path id="Vector_3" d="M27.0175 6.525C27.04 6.1425 27.31 5.8275 27.715 5.8275C28.12 5.8275 28.4125 6.1425 28.435 6.525H27.0175ZM28.435 7.2C28.3675 7.515 28.12 7.6725 27.805 7.6725C27.265 7.6725 27.0175 7.29 27.04 6.8625H28.885C28.9075 6.255 28.6375 5.445 27.76 5.445C27.085 5.445 26.59 5.985 26.59 6.7275C26.6125 7.4925 26.995 8.0325 27.7825 8.0325C28.345 8.0325 28.7275 7.74 28.84 7.2H28.435ZM26.1175 5.5125H25.735V5.8725C25.5775 5.6025 25.3075 5.4675 24.9925 5.4675C24.1375 5.4675 23.845 6.1875 23.845 6.7725C23.845 7.4475 24.205 8.0325 24.9475 8.0325C25.2625 8.0325 25.5775 7.875 25.7125 7.5825V7.74C25.7125 8.3025 25.51 8.685 24.97 8.685C24.7 8.685 24.34 8.5725 24.34 8.28H23.935C23.9575 8.82 24.4975 9 24.9475 9C25.735 9 26.095 8.595 26.095 7.785V5.5125H26.1175ZM24.97 7.6725C24.43 7.6725 24.2725 7.1775 24.2725 6.7275C24.2725 6.255 24.475 5.8275 24.9925 5.8275C25.51 5.8275 25.69 6.2775 25.69 6.705C25.7125 7.1775 25.51 7.6725 24.97 7.6725ZM21.7075 6.525C21.73 6.1425 22 5.8275 22.405 5.8275C22.81 5.8275 23.1025 6.1425 23.125 6.525H21.7075ZM23.125 7.2C23.0575 7.515 22.81 7.6725 22.495 7.6725C21.955 7.6725 21.7075 7.29 21.73 6.8625H23.575C23.5975 6.255 23.3275 5.445 22.45 5.445C21.775 5.445 21.28 5.985 21.28 6.7275C21.3025 7.4925 21.685 8.0325 22.4725 8.0325C23.035 8.0325 23.4175 7.74 23.53 7.2H23.125ZM20.38 7.9875H20.785V4.59H20.38V7.9875ZM19.3225 7.9875H19.7275V4.59H19.3225V7.9875ZM16.8475 6.75C16.8475 6.1425 17.185 5.805 17.6125 5.805C18.04 5.805 18.3775 6.1425 18.3775 6.75C18.3775 7.3575 18.04 7.6725 17.6125 7.6725C17.185 7.695 16.8475 7.3575 16.8475 6.75ZM16.42 6.75C16.42 7.47 16.825 8.0325 17.6125 8.0325C18.4 8.0325 18.805 7.47 18.805 6.75C18.805 6.03 18.4 5.445 17.6125 5.445C16.825 5.445 16.42 6.03 16.42 6.75ZM16.015 5.6025C15.9025 4.8825 15.3175 4.5 14.62 4.5C13.5625 4.5 13 5.31 13 6.3C13 7.29 13.5175 8.0775 14.575 8.0775C15.43 8.0775 15.97 7.56 16.06 6.705H15.61C15.565 7.2675 15.2275 7.695 14.62 7.695C13.81 7.695 13.45 7.0425 13.45 6.2775C13.45 5.5575 13.7875 4.905 14.5975 4.905C15.07 4.905 15.4525 5.1525 15.5425 5.625H16.015V5.6025Z" fill="var(--fill-0, white)"/>
</g>
<g id="Group_3">
<path id="Vector_4" d="M61.8475 25.2H51.61V29.34H61.8475V25.2Z" fill="var(--fill-0, #00C1DE)"/>
<path id="Vector_5" d="M45.22 21.3075H45.1525C44.005 19.26 42.2275 18.495 39.91 18.495C34.9825 18.495 32.35 22.635 32.35 27.2025C32.35 32.04 34.6 36.045 39.865 36.045C41.98 36.045 44.0725 35.1675 45.13 33.3225H45.1975V35.64C45.2425 38.16 44.005 39.9825 41.3275 39.9825C39.6175 39.9825 38.155 39.375 37.7275 37.575H32.935C33.1825 41.58 37.21 43.2225 40.6975 43.2225C48.7975 43.2225 49.81 38.3175 49.81 35.4375V18.9675H45.22V21.3075ZM41.1025 32.4C38.1325 32.4 37.1875 29.655 37.1875 27.135C37.1875 24.525 38.38 22.14 41.1025 22.14C44.23 22.14 45.22 24.6825 45.22 27.54C45.22 30.06 43.8475 32.4 41.1025 32.4Z" fill="var(--fill-0, #00C1DE)"/>
<path id="Vector_6" d="M26.2975 35.73L17.5225 12.2625H12.055L4 33.48V36.54H8.2525L10.165 31.14H19.255L21.1 36.54H26.3425H26.6575H31.18V12.2625H26.2975V35.73ZM11.5375 27.1575L14.71 18.2475H14.7775L17.8375 27.1575H11.5375Z" fill="var(--fill-0, #00C1DE)"/>
</g>
<path id="Vector_7" d="M40.2475 85.275H38.47V88.8525H40.2475V85.275ZM22.495 78.975C22.765 75.4425 25.105 71.7525 29.0425 71.7525C33.1375 71.7525 35.5 75.2175 35.5675 78.975H22.495ZM36.8725 80.1225C37.12 75.015 34.6225 70.6275 29.0425 70.6275C23.665 70.6275 21.1 75.375 21.1675 80.2575C21.1 85.185 23.845 89.28 29.0425 89.28C33.2725 89.28 36.04 86.985 36.7375 82.8225H35.41C34.78 86.1075 32.395 88.1325 29.02 88.1325C24.61 88.1325 22.405 84.3075 22.4725 80.1225H36.8725ZM6.0925 87.525C6.34 84.5775 9.8275 82.4625 13.27 80.1675C16.7125 77.8725 19.9975 75.24 19.9975 71.055C19.9975 66.645 16.645 64.5075 12.5725 64.5075C7.8925 64.5075 5.2825 67.275 5.0125 73.0125H6.34C6.34 68.895 8.41 65.655 12.7975 65.655C15.925 65.655 18.6925 67.77 18.6925 71.0325C18.6925 75.06 15.2275 77.265 11.7625 79.605C8.23 81.9225 4.6975 84.375 4.4275 88.8525H20.38V87.525H6.0925Z" fill="var(--fill-0, #00C1DE)"/>
</g>
</g>
</g>
<defs>
<filter id="filter0_d_25_254" x="0" y="0" width="98" height="98" filterUnits="userSpaceOnUse" color-interpolation-filters="sRGB">
<feFlood flood-opacity="0" result="BackgroundImageFix"/>
<feColorMatrix in="SourceAlpha" type="matrix" values="0 0 0 0 0 0 0 0 0 0 0 0 0 0 0 0 0 0 127 0" result="hardAlpha"/>
<feOffset dy="4"/>
<feGaussianBlur stdDeviation="2"/>
<feComposite in2="hardAlpha" operator="out"/>
<feColorMatrix type="matrix" values="0 0 0 0 0 0 0 0 0 0 0 0 0 0 0 0 0 0 0.25 0"/>
<feBlend mode="normal" in2="BackgroundImageFix" result="effect1_dropShadow_25_254"/>
<feBlend mode="normal" in="SourceGraphic" in2="effect1_dropShadow_25_254" result="shape"/>
</filter>
<clipPath id="clip0_25_254">
<rect width="90" height="90" fill="white" transform="translate(4)"/>
</clipPath>
</defs>
</svg>
