<svg preserveAspectRatio="none" width="100%" height="100%" overflow="visible" style="display: block;" viewBox="0 0 101 101" fill="none" xmlns="http://www.w3.org/2000/svg">
<g id="psychology_2e_web_card_Nic1ENA 1" filter="url(#filter0_d_25_221)">
<g clip-path="url(#clip0_25_221)">
<g id="Group">
<path id="Vector" d="M97 0H4V93H97V0Z" fill="var(--fill-0, #009977)"/>
</g>
<path id="Vector_2" d="M88.9555 37.1767H96.9303V33.945H88.9555V37.1767ZM74.866 42.78H78.6325V35.5957C78.6325 32.8058 79.516 31.6665 81.5388 31.6665C83.2825 31.6665 83.9567 32.7825 83.9567 35.0377V42.78H87.7233V34.3402C87.7233 30.9457 86.7235 28.6905 82.7245 28.6905C81.3295 28.6905 79.6787 29.4345 78.7255 30.969H78.6325V23.8312H74.866V42.78ZM74.2615 33.8985C74.029 30.411 71.053 28.7137 67.8213 28.7137C63.3572 28.7137 60.823 31.8757 60.823 36.1305C60.823 40.2457 63.613 43.152 67.7515 43.152C71.3553 43.152 73.8663 41.1757 74.3545 37.5255H70.7275C70.495 39.1995 69.472 40.3155 67.7283 40.3155C65.38 40.3155 64.5895 37.9672 64.5895 35.991C64.5895 33.9682 65.38 31.527 67.798 31.527C69.3557 31.527 70.3322 32.3407 70.588 33.8752H74.2615V33.8985ZM61.5438 29.0857H57.6377L54.6385 38.4787H54.592L51.4998 29.0857H47.4775L52.2902 41.943C52.7087 43.0357 52.2903 44.3842 50.9883 44.5237C50.2443 44.547 49.5003 44.454 48.7795 44.3842V47.4765C49.5468 47.5462 50.314 47.616 51.0813 47.616C53.6852 47.616 54.9873 46.7092 55.801 44.5237L61.5438 29.0857ZM35.7595 38.3392C35.9223 41.9662 39.0145 43.152 42.1998 43.152C45.3385 43.152 48.454 41.9895 48.454 38.3857C48.454 35.8515 46.315 35.0378 44.1062 34.5495C41.9672 34.038 39.8283 33.852 39.8283 32.5035C39.8283 31.3875 41.0838 31.2247 41.9208 31.2247C43.2693 31.2247 44.3852 31.62 44.5015 33.0847H48.082C47.7798 29.7135 45.0363 28.7137 42.037 28.7137C39.0843 28.7137 36.085 29.6205 36.085 33.108C36.085 35.526 38.2472 36.2932 40.4327 36.7582C43.1297 37.3395 44.7108 37.7347 44.7108 38.874C44.7108 40.1992 43.339 40.6177 42.2462 40.6177C40.7582 40.6177 39.3865 39.9435 39.3633 38.316H35.7595V38.3392ZM24.9018 27.0862H28.1335C30.0633 27.0862 31.7837 27.5047 31.7837 29.9227C31.7837 32.3407 30.0633 32.7592 28.1335 32.7592H24.9018V27.0862ZM20.74 42.78H24.9018V35.991H29.2727C33.9925 35.991 35.8292 32.9917 35.8292 29.9227C35.8292 26.8537 33.9925 23.8545 29.2727 23.8545H20.74V42.78Z" fill="var(--fill-0, white)"/>
<g id="Group_2">
<path id="Vector_3" d="M37.0615 54.0795C37.387 53.196 37.852 52.452 38.4565 51.8475C39.061 51.243 39.7818 50.7547 40.642 50.4292C41.479 50.1037 42.4322 49.9177 43.5017 49.9177C44.548 49.9177 45.5245 50.0805 46.3615 50.4292C47.2218 50.778 47.9425 51.243 48.547 51.8475C49.1515 52.452 49.6165 53.196 49.942 54.0795C50.2675 54.963 50.4303 55.9162 50.4303 57.009C50.4303 58.0785 50.2675 59.055 49.942 59.9153C49.6165 60.7755 49.1515 61.5195 48.547 62.124C47.9425 62.7285 47.1985 63.2167 46.3615 63.5422C45.5013 63.8677 44.548 64.0305 43.5017 64.0305C42.4555 64.0305 41.5023 63.8677 40.642 63.5422C39.805 63.2167 39.061 62.7518 38.4565 62.124C37.852 61.5195 37.387 60.7755 37.0615 59.9153C36.736 59.055 36.5733 58.0785 36.5733 57.009C36.55 55.9162 36.7127 54.9397 37.0615 54.0795ZM40.4095 58.5667C40.5025 59.0782 40.6885 59.5432 40.9442 59.9385C41.2 60.3337 41.5255 60.6592 41.944 60.915C42.3625 61.1475 42.874 61.287 43.5017 61.287C44.1295 61.287 44.641 61.1707 45.0828 60.915C45.5013 60.6825 45.85 60.357 46.1058 59.9385C46.3615 59.5432 46.5242 59.0782 46.6405 58.5667C46.7567 58.0552 46.8033 57.5437 46.8033 56.9857C46.8033 56.451 46.7567 55.9162 46.6405 55.4047C46.5475 54.8932 46.3615 54.4282 46.1058 54.033C45.85 53.6377 45.5245 53.3122 45.0828 53.0565C44.6643 52.8007 44.1295 52.6845 43.5017 52.6845C42.874 52.6845 42.3625 52.8007 41.944 53.0565C41.5255 53.3122 41.2 53.6377 40.9442 54.033C40.6885 54.4282 40.5258 54.8932 40.4095 55.4047C40.2933 55.9162 40.2467 56.451 40.2467 56.9857C40.2467 57.5205 40.2933 58.0552 40.4095 58.5667Z" fill="var(--fill-0, white)"/>
<path id="Vector_4" d="M55.336 45.1515V63.6817H51.6392V45.1515H55.336Z" fill="var(--fill-0, white)"/>
<path id="Vector_5" d="M57.01 54.0795C57.3355 53.196 57.8005 52.452 58.405 51.8475C59.0095 51.243 59.7302 50.7547 60.5905 50.4292C61.4275 50.1037 62.3807 49.9177 63.4502 49.9177C64.4965 49.9177 65.473 50.0805 66.31 50.4292C67.1702 50.778 67.891 51.243 68.4955 51.8475C69.1 52.452 69.565 53.196 69.8905 54.0795C70.216 54.963 70.3788 55.9162 70.3788 57.009C70.3788 58.0785 70.216 59.055 69.8905 59.9153C69.565 60.7755 69.1 61.5195 68.4955 62.124C67.891 62.7285 67.147 63.2167 66.31 63.5422C65.4497 63.8677 64.4965 64.0305 63.4502 64.0305C62.404 64.0305 61.4507 63.8677 60.5905 63.5422C59.7535 63.2167 59.0095 62.7518 58.405 62.124C57.8005 61.5195 57.3355 60.7755 57.01 59.9153C56.6845 59.055 56.5217 58.0785 56.5217 57.009C56.5217 55.9162 56.6845 54.9397 57.01 54.0795ZM60.358 58.5667C60.451 59.0782 60.637 59.5432 60.8927 59.9385C61.1485 60.3337 61.474 60.6592 61.8925 60.915C62.311 61.1475 62.8225 61.287 63.4502 61.287C64.078 61.287 64.5895 61.1707 65.0312 60.915C65.4497 60.6825 65.7985 60.357 66.0542 59.9385C66.31 59.5432 66.4728 59.0782 66.589 58.5667C66.7053 58.0552 66.7517 57.5437 66.7517 56.9857C66.7517 56.451 66.7053 55.9162 66.589 55.4047C66.496 54.8932 66.31 54.4282 66.0542 54.033C65.7985 53.6377 65.473 53.3122 65.0312 53.0565C64.6127 52.8007 64.078 52.6845 63.4502 52.6845C62.8225 52.6845 62.311 52.8007 61.8925 53.0565C61.474 53.3122 61.1485 53.6377 60.8927 54.033C60.637 54.4282 60.4742 54.8932 60.358 55.4047C60.2417 55.9162 60.1952 56.451 60.1952 56.9857C60.2185 57.5205 60.265 58.0552 60.358 58.5667Z" fill="var(--fill-0, white)"/>
<path id="Vector_6" d="M84.1893 64.6815C84.0498 65.379 83.7243 66.03 83.236 66.6113C82.7478 67.2158 82.0503 67.704 81.1203 68.1225C80.2135 68.541 78.9813 68.7503 77.4468 68.7503C76.7958 68.7503 76.1215 68.6573 75.424 68.4945C74.7498 68.3318 74.122 68.076 73.564 67.7272C73.006 67.3785 72.541 66.9368 72.169 66.3788C71.797 65.844 71.5878 65.1698 71.5413 64.4258H75.1915C75.3543 65.1233 75.703 65.5882 76.2145 65.8672C76.726 66.123 77.3073 66.2625 77.9583 66.2625C79.0045 66.2625 79.7485 65.9603 80.2368 65.3325C80.7018 64.7048 80.9343 63.9142 80.9343 62.961V61.194H80.8878C80.4925 61.9148 79.9113 62.4263 79.1905 62.775C78.4465 63.1238 77.6793 63.2865 76.8655 63.2865C75.8658 63.2865 75.0055 63.1005 74.2615 62.7517C73.5408 62.403 72.9363 61.9148 72.4713 61.287C72.0063 60.6825 71.6575 59.9618 71.4483 59.1248C71.239 58.311 71.1228 57.4275 71.1228 56.5208C71.1228 55.6605 71.239 54.8235 71.4948 54.0098C71.7505 53.196 72.1225 52.4985 72.5875 51.8708C73.0758 51.2663 73.6803 50.778 74.401 50.406C75.1218 50.034 75.9588 49.8713 76.8888 49.8713C77.7723 49.8713 78.5395 50.034 79.2138 50.3595C79.888 50.685 80.446 51.243 80.8878 52.0102H80.9343V50.22H84.445V62.775C84.3985 63.3795 84.3288 63.984 84.1893 64.6815ZM79.144 60.2175C79.5393 60.0083 79.8648 59.7292 80.1205 59.3805C80.3763 59.0317 80.5855 58.6365 80.7018 58.1948C80.8413 57.753 80.8878 57.288 80.8878 56.7998C80.8878 56.2418 80.8413 55.7303 80.725 55.2188C80.632 54.7305 80.446 54.2887 80.2135 53.9167C79.981 53.5447 79.6555 53.2425 79.2603 53.01C78.865 52.7775 78.3535 52.6845 77.749 52.6845C77.2375 52.6845 76.7725 52.7775 76.4005 52.9867C76.0285 53.196 75.7263 53.475 75.4705 53.8238C75.2148 54.1725 75.0288 54.591 74.9358 55.0327C74.8195 55.4977 74.773 55.9627 74.773 56.4742C74.773 56.9625 74.8195 57.4508 74.9125 57.9158C75.0055 58.3808 75.1683 58.8225 75.4008 59.1945C75.6333 59.5665 75.9355 59.892 76.3308 60.1245C76.7028 60.357 77.191 60.4965 77.749 60.4965C78.2838 60.5198 78.7488 60.4268 79.144 60.2175Z" fill="var(--fill-0, white)"/>
<path id="Vector_7" d="M91.0247 67.6807C90.304 68.1457 89.3275 68.3782 88.072 68.3782C87.7 68.3782 87.3047 68.355 86.9327 68.3317C86.5607 68.3085 86.1887 68.2852 85.7935 68.2387V65.193C86.1422 65.2162 86.491 65.2627 86.863 65.286C87.235 65.3092 87.5837 65.3325 87.9557 65.3092C88.444 65.2627 88.7927 65.0767 89.0252 64.728C89.2577 64.4025 89.374 64.0305 89.374 63.6353C89.374 63.333 89.3275 63.054 89.2112 62.7982L84.5147 50.1967H88.444L91.4897 59.3805H91.5362L94.4657 50.1967H98.2787L92.6755 65.286C92.2802 66.4485 91.7455 67.2157 91.0247 67.6807Z" fill="var(--fill-0, white)"/>
</g>
<path id="Vector_8" d="M96.4653 89.838H95.0703V92.6745H96.4653V89.838ZM82.399 84.8392C82.6083 82.026 84.4682 79.1197 87.5837 79.1197C90.8155 79.1197 92.6988 81.8632 92.7453 84.8392H82.399ZM93.7915 85.746C93.9775 81.7005 92.0012 78.213 87.5837 78.213C83.329 78.213 81.283 81.9795 81.3528 85.8622C81.3063 89.7682 83.4685 93 87.5837 93C90.9317 93 93.1405 91.1865 93.6753 87.885H92.629C92.1408 90.489 90.2342 92.0932 87.5837 92.0932C84.0962 92.0932 82.3293 89.0707 82.399 85.746H93.7915ZM69.4022 91.6282C69.5882 89.3032 72.3782 87.606 75.0985 85.7925C77.8187 83.979 80.4228 81.8865 80.4228 78.5617C80.4228 75.0742 77.749 73.377 74.5405 73.377C70.8205 73.377 68.7745 75.5857 68.542 80.1195H69.5882C69.5882 76.8412 71.239 74.2837 74.7032 74.2837C77.1677 74.2837 79.3765 75.9577 79.3765 78.5385C79.3765 81.7237 76.633 83.4907 73.8895 85.3275C71.1227 87.1642 68.3095 89.1172 68.1003 92.6745H80.7482V91.6282H69.4022Z" fill="var(--fill-0, white)"/>
</g>
</g>
<defs>
<filter id="filter0_d_25_221" x="0" y="0" width="101" height="101" filterUnits="userSpaceOnUse" color-interpolation-filters="sRGB">
<feFlood flood-opacity="0" result="BackgroundImageFix"/>
<feColorMatrix in="SourceAlpha" type="matrix" values="0 0 0 0 0 0 0 0 0 0 0 0 0 0 0 0 0 0 127 0" result="hardAlpha"/>
<feOffset dy="4"/>
<feGaussianBlur stdDeviation="2"/>
<feComposite in2="hardAlpha" operator="out"/>
<feColorMatrix type="matrix" values="0 0 0 0 0 0 0 0 0 0 0 0 0 0 0 0 0 0 0.25 0"/>
<feBlend mode="normal" in2="BackgroundImageFix" result="effect1_dropShadow_25_221"/>
<feBlend mode="normal" in="SourceGraphic" in2="effect1_dropShadow_25_221" result="shape"/>
</filter>
<clipPath id="clip0_25_221">
<rect width="93" height="93" fill="white" transform="translate(4)"/>
</clipPath>
</defs>
</svg>
